<svg xmlns="http://www.w3.org/2000/svg" xmlns:xlink="http://www.w3.org/1999/xlink" id="svg" version="1.1" width="24" height="24" viewBox="0, 0, 400,400"><g id="svgg"><path id="path0" d="M42.800 0.696 C 41.107 1.518,40.400 2.163,40.400 2.883 C 40.400 3.180,40.040 3.683,39.600 4.000 C 39.160 4.317,38.800 4.897,38.800 5.288 C 38.800 5.680,38.621 6.000,38.402 6.000 C 38.138 6.000,38.002 71.464,38.001 200.000 C 37.999 329.330,38.132 394.000,38.399 394.000 C 38.620 394.000,38.800 394.294,38.800 394.653 C 38.800 395.012,39.116 395.597,39.503 395.953 C 39.889 396.309,40.439 397.057,40.725 397.615 C 42.053 400.210,28.013 400.000,199.977 400.000 C 289.964 400.000,355.943 399.850,356.485 399.644 C 358.267 398.966,360.725 396.186,361.501 393.969 C 362.145 392.128,362.242 6.000,361.598 6.000 C 361.379 6.000,361.200 5.640,361.200 5.200 C 361.200 4.760,361.065 4.395,360.900 4.389 C 360.735 4.383,360.159 3.663,359.620 2.789 C 359.080 1.915,358.330 1.200,357.953 1.200 C 357.575 1.200,357.192 0.975,357.100 0.700 C 356.802 -0.195,44.643 -0.198,42.800 0.696 M299.407 27.506 C 299.630 27.668,300.231 29.060,300.740 30.600 C 305.280 44.313,315.360 54.575,328.600 58.963 C 330.360 59.546,332.025 60.164,332.301 60.336 C 332.700 60.585,332.781 88.815,332.701 200.174 L 332.600 339.701 328.286 341.224 C 314.847 345.969,305.335 355.666,300.845 369.200 L 299.717 372.600 200.029 372.600 L 100.342 372.600 99.186 369.228 C 94.313 355.006,84.749 345.480,70.644 340.794 L 67.400 339.717 67.299 200.113 L 67.199 60.509 68.899 59.882 C 69.835 59.538,71.458 58.974,72.506 58.630 C 84.555 54.679,94.918 43.824,99.266 30.600 C 99.772 29.060,100.370 27.668,100.593 27.506 C 101.125 27.122,298.875 27.122,299.407 27.506 M268.582 232.700 C 267.824 233.525,267.203 234.329,267.202 234.486 C 267.201 234.643,266.641 235.408,265.959 236.186 C 264.339 238.031,263.311 238.001,260.020 236.012 C 255.596 233.339,254.823 233.739,253.524 239.365 C 252.773 242.616,251.549 243.566,248.989 242.882 C 244.384 241.650,242.116 242.431,242.565 245.094 C 243.586 251.141,242.986 253.150,240.138 253.218 C 238.848 253.248,235.736 254.189,235.056 254.754 C 234.080 255.563,234.235 256.279,236.026 259.243 C 238.413 263.194,238.226 264.373,234.809 266.918 C 230.628 270.032,230.616 270.414,234.600 273.413 C 236.250 274.655,237.620 275.970,237.644 276.335 C 237.758 278.042,237.420 279.052,235.970 281.337 C 233.584 285.099,233.946 285.837,238.727 286.952 C 243.549 288.077,243.536 288.048,242.566 295.614 C 242.251 298.072,243.362 298.777,246.432 298.068 C 249.239 297.421,249.999 297.470,250.006 298.300 C 250.011 298.897,250.068 298.912,250.395 298.400 C 251.282 297.008,252.778 299.045,253.626 302.800 C 254.493 306.644,255.836 307.355,258.800 305.539 C 261.697 303.765,262.846 303.200,263.558 303.200 C 264.338 303.200,266.400 305.029,266.400 305.721 C 266.400 305.948,266.509 306.024,266.642 305.891 C 266.776 305.758,267.459 306.403,268.160 307.324 C 270.065 309.827,271.225 309.773,272.973 307.100 C 273.368 306.495,273.929 306.000,274.219 306.000 C 274.509 306.000,274.862 305.635,275.003 305.189 C 275.746 302.851,277.715 302.793,281.381 305.003 C 285.304 307.369,286.804 306.668,287.664 302.067 C 288.155 299.442,288.886 298.195,289.914 298.232 C 290.401 298.249,290.800 298.091,290.800 297.880 C 290.800 297.520,291.446 297.569,295.706 298.248 C 298.386 298.676,299.042 296.841,297.929 292.021 C 297.234 289.012,298.053 288.072,302.364 286.928 C 307.506 285.564,307.550 285.469,304.993 281.218 C 302.418 276.936,302.554 276.076,306.200 273.598 C 309.963 271.040,310.252 269.757,307.505 267.812 C 302.534 264.292,302.386 263.783,305.014 259.260 C 307.375 255.196,307.156 254.682,302.600 253.599 C 298.029 252.512,297.093 251.438,297.975 248.289 C 298.237 247.353,298.395 245.690,298.326 244.594 L 298.200 242.600 296.206 242.474 C 295.110 242.405,293.447 242.563,292.511 242.825 C 289.254 243.737,288.280 242.812,287.011 237.600 C 286.116 233.920,285.035 233.359,282.400 235.206 C 278.207 238.144,276.977 238.232,274.928 235.745 C 270.729 230.647,270.547 230.560,268.582 232.700 " stroke="none" fill="#f1b65c" fill-rule="evenodd"/><path id="path1" d="M100.678 28.300 C 100.585 28.465,100.114 29.837,99.633 31.350 C 98.263 35.653,94.369 43.200,93.520 43.200 C 93.344 43.200,93.200 43.378,93.200 43.595 C 93.200 46.275,81.603 55.504,74.600 58.397 C 73.940 58.670,73.087 59.052,72.705 59.247 C 72.323 59.441,71.659 59.600,71.229 59.600 C 70.799 59.600,70.336 59.780,70.200 60.000 C 70.064 60.220,69.513 60.400,68.976 60.400 L 68.000 60.400 68.000 200.000 L 68.000 339.600 68.976 339.600 C 69.513 339.600,70.064 339.780,70.200 340.000 C 70.336 340.220,70.799 340.400,71.229 340.400 C 71.659 340.400,72.323 340.559,72.705 340.753 C 73.087 340.948,73.850 341.282,74.400 341.497 C 74.950 341.711,76.210 342.299,77.200 342.803 C 78.190 343.307,79.404 343.917,79.897 344.160 C 80.390 344.402,80.795 344.735,80.797 344.900 C 80.799 345.065,81.032 345.200,81.315 345.200 C 82.625 345.200,90.103 351.956,92.404 355.219 C 92.940 355.978,93.698 356.949,94.089 357.375 C 94.480 357.802,94.800 358.387,94.800 358.675 C 94.800 358.964,94.935 359.201,95.100 359.203 C 95.265 359.205,95.603 359.610,95.852 360.103 C 96.100 360.596,96.804 361.971,97.416 363.158 C 98.028 364.344,99.014 366.774,99.606 368.558 L 100.683 371.800 200.067 371.901 L 299.450 372.002 300.350 368.887 C 300.845 367.174,301.874 364.609,302.637 363.186 C 303.400 361.764,304.130 360.285,304.259 359.900 C 304.388 359.515,304.652 359.200,304.847 359.200 C 305.041 359.200,305.200 358.964,305.200 358.675 C 305.200 358.387,305.515 357.802,305.900 357.375 C 306.285 356.948,307.100 355.930,307.712 355.111 C 311.181 350.467,317.125 345.588,322.100 343.301 C 322.925 342.922,323.600 342.474,323.600 342.306 C 323.600 342.138,323.949 342.000,324.376 342.000 C 324.803 342.000,325.242 341.856,325.351 341.679 C 325.460 341.503,326.472 341.107,327.600 340.800 C 328.728 340.493,329.740 340.097,329.849 339.921 C 329.958 339.744,330.487 339.600,331.024 339.600 L 332.000 339.600 332.000 200.000 L 332.000 60.400 331.024 60.400 C 330.487 60.400,329.936 60.220,329.800 60.000 C 329.664 59.780,329.201 59.600,328.771 59.600 C 328.341 59.600,327.677 59.441,327.295 59.247 C 326.913 59.052,326.150 58.714,325.600 58.494 C 319.158 55.923,311.017 49.732,307.594 44.800 C 307.059 44.030,306.302 43.051,305.911 42.625 C 305.520 42.198,305.200 41.613,305.200 41.325 C 305.200 41.036,305.065 40.799,304.900 40.797 C 304.735 40.795,304.395 40.390,304.144 39.897 C 301.818 35.321,301.184 33.906,300.605 32.000 C 300.237 30.790,299.774 29.395,299.576 28.900 L 299.217 28.000 200.032 28.000 C 145.480 28.000,100.771 28.135,100.678 28.300 M283.513 68.700 L 283.400 73.400 200.000 73.400 L 116.600 73.400 116.485 69.227 C 116.422 66.932,116.461 64.817,116.573 64.527 C 116.739 64.093,131.546 64.000,200.200 64.000 L 283.625 64.000 283.513 68.700 M261.600 106.200 L 261.600 110.800 200.000 110.800 L 138.400 110.800 138.400 106.200 L 138.400 101.600 200.000 101.600 L 261.600 101.600 261.600 106.200 M303.113 143.500 L 303.000 148.200 200.000 148.200 L 97.000 148.200 96.887 143.500 L 96.775 138.800 200.000 138.800 L 303.225 138.800 303.113 143.500 M303.200 180.800 L 303.200 185.600 200.000 185.600 L 96.800 185.600 96.800 181.067 C 96.800 178.573,96.920 176.413,97.067 176.267 C 97.213 176.120,143.653 176.000,200.267 176.000 L 303.200 176.000 303.200 180.800 M272.805 231.910 C 272.810 232.182,273.208 232.724,275.536 235.631 C 276.804 237.216,277.912 237.126,281.203 235.171 C 285.591 232.564,286.833 233.242,288.039 238.905 C 288.765 242.311,288.984 242.408,294.678 241.842 C 299.307 241.382,299.656 242.044,298.559 249.200 C 298.248 251.229,299.001 251.942,302.416 252.853 C 308.107 254.372,308.471 255.620,304.753 260.862 C 303.325 262.875,303.718 264.136,306.422 266.217 C 311.303 269.973,311.379 270.701,307.200 273.613 C 303.752 276.016,303.201 277.350,304.753 279.538 C 308.399 284.677,307.444 287.600,302.120 287.600 C 299.013 287.600,298.206 289.099,298.854 293.673 C 299.538 298.510,299.131 298.999,294.700 298.661 L 291.600 298.425 291.600 300.189 C 291.600 301.159,291.780 302.064,292.000 302.200 C 292.220 302.336,292.400 303.146,292.400 304.000 C 292.400 304.854,292.580 305.664,292.800 305.800 C 293.020 305.936,293.200 306.566,293.200 307.200 C 293.200 307.834,293.380 308.464,293.600 308.600 C 293.820 308.736,294.000 309.276,294.000 309.800 C 294.000 310.324,294.180 310.864,294.400 311.000 C 294.620 311.136,294.800 311.599,294.800 312.029 C 294.800 312.459,294.960 313.123,295.156 313.505 C 295.352 313.887,295.873 315.010,296.315 316.000 C 298.608 321.145,299.849 323.467,302.134 326.888 C 302.974 328.147,303.547 329.362,303.407 329.588 C 303.081 330.116,300.925 330.126,300.600 329.600 C 300.464 329.380,299.834 329.200,299.200 329.200 C 298.566 329.200,297.936 329.020,297.800 328.800 C 297.664 328.580,297.124 328.400,296.600 328.400 C 296.076 328.400,295.536 328.220,295.400 328.000 C 295.264 327.780,294.724 327.600,294.200 327.600 C 293.676 327.600,293.136 327.420,293.000 327.200 C 292.464 326.332,291.600 326.811,291.600 327.976 C 291.600 328.623,291.440 329.252,291.244 329.373 C 290.879 329.598,290.623 330.805,290.050 335.013 C 289.601 338.309,288.000 340.779,288.000 338.176 C 288.000 337.859,287.820 337.600,287.600 337.600 C 287.380 337.600,287.200 337.426,287.200 337.213 C 287.200 337.001,286.492 335.732,285.627 334.394 C 284.237 332.242,279.373 322.681,278.305 320.000 C 278.086 319.450,277.748 318.687,277.553 318.305 C 277.359 317.923,277.200 317.259,277.200 316.829 C 277.200 316.399,277.020 315.936,276.800 315.800 C 276.580 315.664,276.400 315.124,276.400 314.600 C 276.400 314.076,276.220 313.536,276.000 313.400 C 275.780 313.264,275.600 312.724,275.600 312.200 C 275.600 311.676,275.420 311.136,275.200 311.000 C 274.980 310.864,274.797 310.178,274.794 309.476 C 274.783 307.213,274.222 306.878,272.870 308.325 C 271.213 310.099,269.638 310.061,268.113 308.211 L 266.968 306.822 266.462 308.711 C 266.184 309.750,265.769 311.320,265.539 312.200 C 265.310 313.080,264.990 314.070,264.828 314.400 C 264.667 314.730,264.285 315.855,263.980 316.900 C 263.675 317.945,263.285 318.800,263.113 318.800 C 262.941 318.800,262.794 319.115,262.787 319.500 C 262.781 319.885,262.241 321.275,261.587 322.590 C 260.934 323.904,260.400 325.194,260.400 325.456 C 260.400 325.719,260.258 325.993,260.085 326.067 C 259.912 326.140,259.275 327.190,258.669 328.400 C 257.511 330.714,257.122 331.410,254.656 335.582 C 252.317 339.538,251.220 339.950,251.206 336.877 C 251.200 335.635,250.832 333.657,249.998 330.400 C 249.801 329.630,249.537 328.505,249.412 327.900 C 249.202 326.886,248.000 326.290,248.000 327.200 C 248.000 327.420,247.561 327.600,247.024 327.600 C 246.487 327.600,245.936 327.780,245.800 328.000 C 245.664 328.220,245.111 328.400,244.571 328.400 C 244.031 328.400,243.277 328.558,242.895 328.751 C 240.901 329.758,238.024 330.290,237.485 329.751 C 237.348 329.615,237.948 328.455,238.818 327.173 C 239.688 325.892,240.400 324.669,240.400 324.455 C 240.400 324.242,240.541 324.007,240.713 323.933 C 241.005 323.809,243.955 317.970,245.328 314.800 C 246.496 312.103,247.556 308.560,248.573 303.952 C 249.926 297.829,249.941 298.005,248.100 298.433 C 242.454 299.744,240.937 297.820,242.607 291.471 C 243.210 289.181,242.317 288.482,237.128 287.181 C 233.224 286.202,232.973 285.308,235.403 281.054 C 237.836 276.795,237.809 276.500,234.800 274.394 C 229.701 270.827,229.780 269.560,235.337 265.708 C 237.705 264.067,237.711 263.433,235.400 259.378 C 232.787 254.792,233.296 253.850,238.977 252.768 C 242.160 252.162,242.930 251.463,242.615 249.465 C 241.402 241.775,241.563 241.541,247.840 241.887 C 252.365 242.136,252.260 242.208,253.190 238.200 C 254.349 233.200,255.598 232.569,259.564 234.978 C 263.984 237.663,264.312 237.600,267.129 233.504 C 268.856 230.993,270.194 230.273,271.695 231.049 C 272.303 231.363,272.802 231.751,272.805 231.910 M209.200 255.600 L 209.200 260.400 153.000 260.400 L 96.800 260.400 96.800 255.867 C 96.800 253.373,96.920 251.213,97.067 251.067 C 97.213 250.920,122.503 250.800,153.267 250.800 L 209.200 250.800 209.200 255.600 M160.000 285.000 L 160.000 289.600 128.400 289.600 L 96.800 289.600 96.800 285.000 L 96.800 280.400 128.400 280.400 L 160.000 280.400 160.000 285.000 M189.200 314.200 L 189.200 318.800 143.000 318.800 L 96.800 318.800 96.800 314.200 L 96.800 309.600 143.000 309.600 L 189.200 309.600 189.200 314.200 " stroke="none" fill="#ebebeb" fill-rule="evenodd"/><path id="path2" d="M250.243 298.633 C 250.109 298.981,249.998 299.746,249.996 300.333 C 249.978 305.736,244.392 320.034,239.552 327.070 C 238.918 327.991,238.400 328.861,238.400 329.004 C 238.400 329.400,242.163 328.533,244.600 327.575 C 247.960 326.254,249.733 326.392,250.060 328.000 C 250.216 328.770,250.621 330.390,250.959 331.600 C 251.298 332.810,251.682 334.655,251.812 335.700 C 251.942 336.745,252.197 337.600,252.379 337.600 C 253.060 337.600,260.613 323.742,261.972 320.000 C 262.252 319.230,262.667 318.150,262.894 317.600 C 263.818 315.364,263.980 314.888,264.740 312.200 C 266.738 305.124,266.701 305.610,265.345 304.255 C 263.789 302.698,263.275 302.798,258.800 305.539 C 256.916 306.693,255.069 306.676,254.501 305.500 C 253.810 304.069,253.200 301.957,253.200 300.994 C 253.200 299.109,250.797 297.190,250.243 298.633 M288.905 298.483 C 288.672 298.767,288.272 299.810,288.016 300.800 C 287.211 303.899,286.712 305.382,286.300 305.900 C 285.712 306.639,283.676 306.507,282.462 305.652 C 277.792 302.363,274.310 302.861,274.973 306.722 C 275.442 309.457,276.144 312.197,276.473 312.580 C 276.653 312.789,276.799 313.239,276.798 313.580 C 276.790 316.473,288.090 338.899,288.843 337.486 C 288.986 337.218,289.224 335.920,289.373 334.600 C 289.522 333.280,290.096 330.812,290.650 329.114 L 291.656 326.029 293.128 326.567 C 293.938 326.862,295.410 327.327,296.400 327.598 C 297.390 327.870,298.650 328.237,299.200 328.414 C 302.847 329.585,302.962 329.429,300.863 326.180 C 298.455 322.451,295.051 315.258,293.680 311.000 C 292.295 306.699,291.966 305.451,291.257 301.801 C 290.553 298.183,289.900 297.262,288.905 298.483 " stroke="none" fill="#e74c5e" fill-rule="evenodd"/><path id="path3" d="M150.500 27.900 C 177.725 27.957,222.275 27.957,249.500 27.900 C 276.725 27.843,254.450 27.797,200.000 27.797 C 145.550 27.797,123.275 27.843,150.500 27.900 M116.573 64.527 C 116.461 64.817,116.422 66.932,116.485 69.227 L 116.600 73.400 200.000 73.400 L 283.400 73.400 283.513 68.700 L 283.625 64.000 200.200 64.000 C 131.546 64.000,116.739 64.093,116.573 64.527 M138.400 106.200 L 138.400 110.800 200.000 110.800 L 261.600 110.800 261.600 106.200 L 261.600 101.600 200.000 101.600 L 138.400 101.600 138.400 106.200 M96.887 143.500 L 97.000 148.200 200.000 148.200 L 303.000 148.200 303.113 143.500 L 303.225 138.800 200.000 138.800 L 96.775 138.800 96.887 143.500 M97.067 176.267 C 96.920 176.413,96.800 178.573,96.800 181.067 L 96.800 185.600 200.000 185.600 L 303.200 185.600 303.200 180.800 L 303.200 176.000 200.267 176.000 C 143.653 176.000,97.213 176.120,97.067 176.267 M97.067 251.067 C 96.920 251.213,96.800 253.373,96.800 255.867 L 96.800 260.400 153.000 260.400 L 209.200 260.400 209.200 255.600 L 209.200 250.800 153.267 250.800 C 122.503 250.800,97.213 250.920,97.067 251.067 M96.800 285.000 L 96.800 289.600 128.400 289.600 L 160.000 289.600 160.000 285.000 L 160.000 280.400 128.400 280.400 L 96.800 280.400 96.800 285.000 M96.800 314.200 L 96.800 318.800 143.000 318.800 L 189.200 318.800 189.200 314.200 L 189.200 309.600 143.000 309.600 L 96.800 309.600 96.800 314.200 M88.200 350.800 C 89.059 351.680,89.852 352.400,89.962 352.400 C 90.072 352.400,89.459 351.680,88.600 350.800 C 87.741 349.920,86.948 349.200,86.838 349.200 C 86.728 349.200,87.341 349.920,88.200 350.800 M100.741 372.101 C 100.906 372.266,145.672 372.356,200.221 372.301 L 299.400 372.200 199.920 372.000 C 145.206 371.890,100.575 371.935,100.741 372.101 " stroke="none" fill="#dcdcdc" fill-rule="evenodd"/><path id="path4" d="M100.500 27.465 C 100.225 27.576,100.000 27.935,100.000 28.262 C 100.000 28.775,100.087 28.770,100.629 28.229 C 101.401 27.457,297.788 27.244,299.226 28.014 C 299.671 28.252,300.000 28.270,300.000 28.057 C 300.000 27.853,299.715 27.576,299.367 27.443 C 298.610 27.152,101.220 27.174,100.500 27.465 M99.029 31.284 C 95.114 43.583,84.257 54.777,72.506 58.630 C 71.458 58.974,69.835 59.538,68.899 59.882 L 67.199 60.509 67.299 200.113 L 67.400 339.717 70.644 340.794 C 84.441 345.378,94.764 355.535,99.019 368.716 C 99.395 369.879,99.792 370.741,99.902 370.631 C 100.195 370.339,98.917 366.594,97.503 363.600 C 92.349 352.685,81.062 343.040,69.900 340.012 L 68.000 339.496 68.004 200.048 L 68.008 60.600 70.897 59.667 C 82.381 55.959,92.400 47.197,97.503 36.400 C 98.917 33.408,100.195 29.662,99.902 29.369 C 99.792 29.259,99.399 30.121,99.029 31.284 M300.000 29.573 C 300.000 31.671,304.078 39.885,307.175 44.025 C 311.436 49.722,322.039 58.056,324.941 57.989 C 325.193 57.984,324.119 57.299,322.553 56.468 C 312.156 50.947,304.379 41.874,300.983 31.300 C 300.349 29.328,300.000 28.714,300.000 29.573 M325.800 58.400 C 325.936 58.620,326.386 58.800,326.800 58.800 C 327.214 58.800,327.664 58.980,327.800 59.200 C 327.936 59.420,328.476 59.600,329.000 59.600 C 329.524 59.600,330.064 59.780,330.200 60.000 C 330.336 60.220,330.797 60.400,331.224 60.400 C 331.991 60.400,332.000 62.081,332.000 199.924 L 332.000 339.448 329.300 340.345 C 318.501 343.931,310.273 350.449,304.491 360.000 C 302.757 362.864,299.987 369.468,300.023 370.650 C 300.036 371.062,300.481 370.140,301.013 368.600 C 305.538 355.477,315.099 345.880,328.286 341.224 L 332.600 339.701 332.701 200.084 L 332.801 60.467 330.901 59.788 C 329.855 59.415,328.321 58.860,327.492 58.555 C 325.695 57.894,325.475 57.874,325.800 58.400 M269.295 231.066 C 269.018 231.178,267.964 232.428,266.955 233.843 C 264.171 237.744,263.944 237.780,259.424 235.040 C 255.846 232.872,254.533 233.270,253.617 236.800 C 253.417 237.570,253.056 238.962,252.813 239.893 C 252.201 242.246,251.514 242.511,247.360 241.995 C 241.756 241.299,241.503 241.698,242.635 249.465 C 242.934 251.518,242.311 252.022,238.211 253.046 C 233.216 254.293,232.876 255.361,235.941 260.178 C 237.915 263.280,237.724 263.986,234.200 266.639 C 230.494 269.428,230.158 270.782,232.700 272.677 C 233.525 273.292,234.290 273.895,234.400 274.017 C 234.510 274.139,235.185 274.647,235.900 275.147 C 237.621 276.349,237.576 277.407,235.663 280.730 C 233.612 284.291,233.524 284.617,234.339 285.624 C 235.101 286.565,237.612 287.584,239.200 287.595 C 241.415 287.612,242.907 289.055,242.636 290.919 C 241.540 298.468,241.845 299.108,246.285 298.563 C 247.778 298.380,249.225 298.249,249.500 298.271 C 249.775 298.293,250.000 298.151,250.000 297.956 C 250.000 297.473,248.856 297.509,246.432 298.068 C 243.362 298.777,242.251 298.072,242.566 295.614 C 243.536 288.048,243.549 288.077,238.727 286.952 C 233.946 285.837,233.584 285.099,235.970 281.337 C 237.420 279.052,237.758 278.042,237.644 276.335 C 237.620 275.970,236.250 274.655,234.600 273.413 C 230.616 270.414,230.628 270.032,234.809 266.918 C 238.226 264.373,238.413 263.194,236.026 259.243 C 234.235 256.279,234.080 255.563,235.056 254.754 C 235.736 254.189,238.848 253.248,240.138 253.218 C 242.986 253.150,243.586 251.141,242.565 245.094 C 242.116 242.431,244.384 241.650,248.989 242.882 C 251.549 243.566,252.773 242.616,253.524 239.365 C 254.823 233.739,255.596 233.339,260.020 236.012 C 264.044 238.444,264.567 238.267,268.163 233.257 C 270.011 230.682,271.034 230.734,273.060 233.505 C 276.620 238.375,277.617 238.557,282.400 235.206 C 285.035 233.359,286.116 233.920,287.011 237.600 C 288.280 242.812,289.254 243.737,292.511 242.825 C 293.447 242.563,295.110 242.405,296.206 242.474 L 298.200 242.600 298.326 244.594 C 298.395 245.690,298.237 247.353,297.975 248.289 C 297.093 251.438,298.029 252.512,302.600 253.599 C 307.156 254.682,307.375 255.196,305.014 259.260 C 302.386 263.783,302.534 264.292,307.505 267.812 C 310.252 269.757,309.963 271.040,306.200 273.598 C 302.554 276.076,302.418 276.936,304.993 281.218 C 307.550 285.469,307.506 285.564,302.364 286.928 C 298.053 288.072,297.234 289.012,297.929 292.021 C 299.042 296.841,298.386 298.676,295.706 298.248 C 290.158 297.363,290.351 297.263,291.200 300.600 C 291.476 301.685,291.510 301.623,291.553 299.954 L 291.600 298.107 293.300 298.436 C 298.622 299.466,299.553 298.618,298.784 293.446 C 298.083 288.736,298.372 288.361,303.600 287.192 C 307.576 286.303,308.098 284.941,305.794 281.470 C 303.092 277.400,303.225 276.311,306.718 273.932 C 311.135 270.924,311.058 269.633,306.255 266.200 C 303.723 264.389,303.279 262.744,304.800 260.800 C 305.230 260.250,305.586 259.575,305.591 259.300 C 305.596 259.025,305.735 258.799,305.900 258.797 C 306.343 258.792,307.200 256.779,307.200 255.743 C 307.200 254.488,305.921 253.726,302.559 252.978 C 298.396 252.052,298.127 251.649,298.746 247.273 C 299.514 241.847,299.043 241.349,293.760 242.005 C 289.536 242.530,288.836 242.203,288.084 239.355 C 286.371 232.862,285.666 232.381,281.655 234.964 C 277.597 237.579,277.321 237.607,275.533 235.571 C 274.676 234.597,273.380 233.125,272.652 232.300 C 271.417 230.901,270.522 230.572,269.295 231.066 M249.419 300.727 C 249.255 301.677,249.217 302.550,249.334 302.668 C 249.626 302.959,250.126 300.173,249.900 299.521 C 249.800 299.235,249.584 299.777,249.419 300.727 M291.646 303.000 C 291.715 304.631,292.315 305.987,292.354 304.600 C 292.373 303.940,292.213 303.130,292.000 302.800 C 291.681 302.306,291.618 302.341,291.646 303.000 M248.688 304.133 C 248.530 304.536,248.411 305.256,248.425 305.733 C 248.449 306.556,248.471 306.550,248.840 305.625 C 249.054 305.089,249.173 304.369,249.103 304.025 C 248.999 303.511,248.925 303.530,248.688 304.133 M266.372 306.671 C 266.135 307.292,265.843 308.340,265.722 309.000 C 265.486 310.284,264.148 314.877,263.624 316.200 C 262.770 318.355,261.913 320.434,260.945 322.700 C 260.114 324.645,260.658 324.268,261.569 322.268 C 263.403 318.242,264.776 314.298,266.394 308.410 L 266.886 306.619 268.082 308.110 C 269.761 310.203,273.600 309.498,273.600 307.096 C 273.600 306.880,273.870 306.926,274.200 307.200 C 274.530 307.474,274.800 308.068,274.800 308.521 C 274.800 308.973,274.976 309.896,275.191 310.572 C 276.625 315.074,277.293 317.101,277.573 317.800 C 279.090 321.591,280.849 325.284,281.045 325.088 C 281.134 325.000,280.557 323.522,279.764 321.805 C 278.132 318.272,275.431 310.259,275.010 307.700 C 274.684 305.723,274.004 305.523,272.973 307.100 C 271.215 309.788,270.066 309.828,268.119 307.271 L 266.803 305.541 266.372 306.671 M292.631 307.066 C 293.022 308.757,294.772 314.001,295.478 315.600 C 297.398 319.952,299.467 323.877,301.557 327.134 C 303.272 329.805,303.259 329.811,298.771 328.441 C 293.966 326.975,293.147 326.791,293.423 327.237 C 293.546 327.437,293.952 327.603,294.324 327.606 C 294.696 327.609,295.810 327.897,296.800 328.247 C 303.278 330.531,304.253 330.275,301.931 326.899 C 300.538 324.874,296.431 317.021,295.604 314.800 C 293.898 310.220,293.219 308.100,293.210 307.324 C 293.205 306.842,293.013 306.332,292.784 306.190 C 292.512 306.022,292.459 306.326,292.631 307.066 M247.873 307.353 C 247.723 307.745,247.611 308.366,247.625 308.733 C 247.642 309.175,247.781 309.074,248.037 308.434 C 248.249 307.903,248.361 307.282,248.285 307.054 C 248.209 306.827,248.024 306.961,247.873 307.353 M247.000 310.400 C 246.850 310.873,246.817 311.350,246.927 311.460 C 247.037 311.570,247.250 311.273,247.400 310.800 C 247.550 310.327,247.583 309.850,247.473 309.740 C 247.363 309.630,247.150 309.927,247.000 310.400 M246.267 312.267 C 246.120 312.413,246.000 312.775,246.000 313.071 C 246.000 314.674,240.703 324.938,238.202 328.181 C 236.958 329.795,237.664 330.186,240.467 329.436 C 243.754 328.557,246.902 327.559,247.940 327.067 C 248.723 326.696,248.974 326.750,249.440 327.387 C 249.748 327.808,250.000 327.961,250.000 327.725 C 250.000 326.789,248.840 326.287,247.700 326.731 C 247.095 326.967,245.610 327.455,244.400 327.816 C 237.861 329.764,237.666 329.758,239.153 327.662 C 242.433 323.035,248.390 310.143,246.267 312.267 M258.241 328.125 C 257.173 330.146,256.485 331.620,256.712 331.400 C 257.507 330.629,260.573 324.839,260.319 324.586 C 260.244 324.511,259.309 326.103,258.241 328.125 M281.201 325.720 C 281.199 326.273,282.450 328.484,282.651 328.282 C 282.757 328.177,282.474 327.485,282.023 326.745 C 281.572 326.005,281.202 325.544,281.201 325.720 M291.479 326.700 C 291.021 327.517,290.800 329.247,291.184 329.010 C 291.413 328.868,291.600 328.327,291.600 327.806 C 291.600 327.240,291.882 326.785,292.300 326.676 C 292.931 326.511,292.933 326.488,292.324 326.446 C 291.952 326.421,291.571 326.535,291.479 326.700 M282.824 328.883 C 282.800 329.172,286.879 336.328,288.040 338.033 L 288.679 338.973 289.172 338.052 C 289.443 337.546,289.733 336.112,289.817 334.866 L 289.969 332.600 289.484 335.117 C 288.849 338.420,288.686 338.356,285.958 333.735 C 283.151 328.980,282.854 328.520,282.824 328.883 M250.034 329.600 C 250.046 329.930,250.211 330.560,250.400 331.000 L 250.744 331.800 250.766 331.000 C 250.778 330.560,250.613 329.930,250.400 329.600 C 250.055 329.067,250.015 329.067,250.034 329.600 M290.222 330.729 C 290.058 331.459,290.022 332.156,290.142 332.276 C 290.443 332.577,290.920 330.556,290.699 329.917 C 290.601 329.633,290.386 329.998,290.222 330.729 M250.863 332.600 C 250.854 333.040,250.995 334.120,251.177 335.000 L 251.508 336.600 251.514 335.200 C 251.517 334.430,251.376 333.350,251.200 332.800 C 250.941 331.991,250.877 331.953,250.863 332.600 M254.447 334.816 C 252.725 337.605,252.241 338.033,251.865 337.100 C 251.754 336.825,251.649 337.095,251.632 337.700 C 251.614 338.305,251.771 338.800,251.981 338.800 C 252.359 338.800,254.800 335.500,254.800 334.990 C 254.800 334.843,255.180 334.190,255.644 333.539 C 256.108 332.887,256.415 332.281,256.326 332.193 C 256.237 332.104,255.392 333.284,254.447 334.816 M100.091 371.800 C 100.254 372.890,299.584 373.089,299.917 372.000 C 300.065 371.516,299.998 371.496,299.570 371.900 C 298.604 372.811,100.972 372.613,100.405 371.700 C 100.008 371.060,99.981 371.069,100.091 371.800 " stroke="none" fill="#ecd4b3" fill-rule="evenodd"/></g></svg>
