<svg xmlns="http://www.w3.org/2000/svg" xmlns:xlink="http://www.w3.org/1999/xlink" id="svg" version="1.1" width="24" height="24" viewBox="0, 0, 400,400"><g id="svgg"><path id="path0" d="M96.557 0.700 C 94.925 2.194,94.800 3.560,94.800 19.928 C 94.800 33.592,94.877 35.600,95.400 35.600 C 95.932 35.600,96.000 51.960,96.000 180.440 L 96.000 325.280 97.360 326.640 L 98.720 328.000 216.260 328.027 C 280.907 328.042,339.217 328.139,345.838 328.243 C 356.157 328.404,357.947 328.346,358.369 327.837 C 358.796 327.323,358.549 327.246,356.531 327.268 C 352.531 327.312,350.985 327.199,351.416 326.894 C 352.548 326.095,352.597 320.177,352.499 197.500 L 352.398 71.200 335.779 71.200 C 317.532 71.200,317.435 71.188,316.200 68.800 C 315.661 67.757,315.600 63.544,315.693 33.807 L 315.800 -0.000 206.561 -0.000 C 103.082 -0.000,97.282 0.037,96.557 0.700 M246.673 29.762 C 247.762 30.698,247.797 30.856,247.998 35.755 C 248.285 42.749,248.459 42.922,255.444 43.200 C 262.739 43.490,262.400 42.914,262.400 55.016 L 262.400 64.387 261.234 65.694 L 260.068 67.000 255.300 67.132 C 248.411 67.323,248.266 67.462,248.000 74.154 C 247.807 78.997,247.759 79.226,246.691 80.292 L 245.582 81.400 236.000 81.400 L 226.418 81.400 225.309 80.291 C 224.253 79.235,224.190 78.960,223.999 74.491 C 223.703 67.603,223.384 67.291,216.466 67.115 L 211.933 67.000 210.766 65.694 L 209.600 64.387 209.600 55.016 C 209.600 42.914,209.261 43.490,216.556 43.200 C 223.546 42.922,223.722 42.746,224.000 35.757 C 224.291 28.449,223.686 28.800,236.000 28.800 C 245.514 28.800,245.560 28.804,246.673 29.762 M58.895 55.700 L 58.800 71.600 42.272 71.600 L 25.744 71.600 24.872 72.603 C 24.392 73.155,24.000 73.875,24.000 74.203 C 24.000 74.531,23.820 74.800,23.600 74.800 C 23.334 74.800,23.200 128.785,23.200 235.954 C 23.200 406.793,23.116 398.539,24.874 399.654 C 26.165 400.473,279.160 400.056,279.864 399.234 C 281.462 397.367,281.588 395.970,281.594 379.947 L 281.600 364.493 280.700 364.252 C 280.205 364.119,230.978 364.008,171.306 364.005 L 62.813 364.000 61.506 362.833 L 60.200 361.666 60.098 216.633 C 60.032 121.807,59.860 71.600,59.603 71.600 C 59.353 71.600,59.169 65.792,59.100 55.700 L 58.991 39.800 58.895 55.700 M258.008 128.404 C 261.782 130.329,261.900 136.113,258.211 138.393 C 256.447 139.484,191.287 139.679,189.201 138.600 C 185.101 136.480,184.931 130.815,188.896 128.398 C 190.950 127.146,255.553 127.151,258.008 128.404 M156.434 133.200 C 166.206 133.200,165.200 131.308,165.200 149.694 L 165.200 164.436 164.245 165.392 C 162.807 166.830,161.480 166.922,146.930 166.601 C 134.547 166.328,133.447 166.247,132.753 165.553 C 131.664 164.464,131.577 134.850,132.660 133.949 C 133.301 133.416,145.251 132.736,148.150 133.068 C 148.782 133.141,152.510 133.200,156.434 133.200 M321.400 158.934 C 325.256 161.291,325.340 166.765,321.555 169.000 C 320.215 169.791,319.482 169.800,255.000 169.800 L 189.800 169.800 188.494 168.868 C 184.588 166.082,185.285 160.582,189.800 158.563 C 191.958 157.598,319.804 157.958,321.400 158.934 M256.867 193.212 C 262.302 194.722,262.184 202.853,256.706 204.363 C 253.505 205.245,190.506 204.785,188.994 203.869 C 184.456 201.120,185.384 194.032,190.405 193.095 C 192.533 192.697,255.414 192.808,256.867 193.212 M164.371 199.454 C 165.654 201.086,165.667 229.348,164.384 230.725 C 163.266 231.925,134.040 232.122,132.731 230.938 C 131.483 229.808,131.616 200.389,132.875 199.216 C 133.724 198.425,134.209 198.400,148.646 198.400 L 163.542 198.400 164.371 199.454 M321.863 224.621 C 325.290 227.235,325.183 231.926,321.641 234.292 L 320.282 235.200 255.241 235.199 C 191.046 235.197,190.183 235.187,188.896 234.402 C 185.453 232.303,184.953 228.226,187.789 225.389 L 189.579 223.600 255.052 223.600 L 320.524 223.600 321.863 224.621 M321.185 257.792 C 324.937 259.732,325.415 264.846,322.099 267.579 L 320.618 268.800 255.247 268.800 L 189.876 268.800 188.537 267.779 C 185.025 265.100,185.203 260.250,188.896 257.998 C 190.661 256.922,319.115 256.722,321.185 257.792 M163.041 262.816 C 165.195 263.635,165.174 263.470,165.187 279.256 C 165.203 297.650,166.219 295.727,156.336 296.011 C 144.415 296.353,133.485 295.944,132.666 295.124 C 132.052 294.509,132.000 293.059,132.095 279.124 L 132.200 263.800 133.600 263.101 C 135.255 262.274,160.962 262.025,163.041 262.816 M257.327 288.195 C 261.497 289.938,262.184 295.888,258.507 298.407 L 257.059 299.400 223.429 299.400 L 189.800 299.400 188.524 298.490 C 184.973 295.957,185.181 290.856,188.926 288.611 L 190.600 287.608 223.251 287.604 C 251.263 287.601,256.105 287.685,257.327 288.195 M375.641 323.400 C 375.675 324.280,376.274 325.327,376.518 324.932 C 376.659 324.704,376.516 324.176,376.200 323.759 C 375.884 323.342,375.632 323.180,375.641 323.400 M374.200 326.800 C 374.336 327.020,374.257 327.200,374.024 327.200 C 373.791 327.200,373.600 327.440,373.600 327.733 C 373.600 328.027,373.853 328.267,374.162 328.267 C 374.497 328.267,374.631 328.024,374.494 327.668 C 374.327 327.232,374.419 327.162,374.832 327.411 C 375.317 327.703,375.320 327.654,374.851 327.077 C 374.257 326.344,373.798 326.149,374.200 326.800 M360.700 327.521 C 358.142 327.738,359.053 328.327,361.844 328.262 C 363.333 328.227,364.469 328.025,364.444 327.800 C 364.398 327.386,363.283 327.303,360.700 327.521 M369.795 327.497 C 370.672 327.586,371.617 327.848,371.895 328.079 C 372.266 328.387,372.400 328.326,372.400 327.849 C 372.400 327.324,371.998 327.213,370.300 327.267 C 368.417 327.328,368.365 327.351,369.795 327.497 M367.965 328.126 C 368.144 328.305,369.081 328.391,370.046 328.318 L 371.800 328.185 369.719 327.993 C 368.575 327.887,367.785 327.947,367.965 328.126 M304.009 380.333 C 304.031 394.010,304.117 396.267,304.617 396.267 C 305.118 396.267,305.200 394.021,305.200 380.333 C 305.200 366.341,305.126 364.400,304.592 364.400 C 304.057 364.400,303.987 366.330,304.009 380.333 M302.225 398.429 C 301.583 399.075,301.542 399.295,301.984 399.705 C 302.419 400.108,302.469 400.061,302.253 399.452 C 302.043 398.859,302.145 398.745,302.743 398.901 C 303.326 399.053,303.454 398.927,303.303 398.349 C 303.195 397.937,303.083 397.611,303.053 397.624 C 303.024 397.637,302.651 397.999,302.225 398.429 " stroke="none" fill="#f2f2f2" fill-rule="evenodd"/><path id="path1" d="M133.200 134.400 C 132.206 135.394,131.928 163.636,132.900 164.894 C 133.437 165.589,159.408 166.425,162.492 165.847 C 164.748 165.423,164.800 165.064,164.800 149.755 C 164.800 136.084,164.684 134.737,163.440 133.906 C 162.250 133.111,134.028 133.572,133.200 134.400 M140.000 199.095 C 134.378 199.194,133.326 199.311,132.900 199.882 C 132.076 200.987,132.190 229.122,133.023 230.311 L 133.645 231.200 148.574 231.200 C 161.967 231.200,163.558 231.132,164.051 230.539 C 164.779 229.662,165.082 202.047,164.382 200.357 C 163.689 198.683,163.612 198.679,140.000 199.095 M133.289 263.823 L 132.400 264.445 132.400 279.146 C 132.400 290.295,132.521 294.003,132.900 294.494 C 133.437 295.189,159.408 296.025,162.492 295.447 C 164.748 295.023,164.800 294.664,164.800 279.355 C 164.800 265.684,164.684 264.337,163.440 263.506 C 162.470 262.858,134.243 263.154,133.289 263.823 " stroke="none" fill="#df5561" fill-rule="evenodd"/><path id="path2" d="M315.843 0.633 C 315.235 2.217,315.584 67.609,316.207 68.813 C 317.434 71.186,317.546 71.200,335.779 71.200 L 352.398 71.200 352.499 197.500 C 352.597 320.177,352.548 326.095,351.416 326.894 C 350.985 327.199,352.531 327.312,356.531 327.268 C 358.521 327.247,358.792 327.327,358.382 327.821 C 357.999 328.284,358.026 328.400,358.518 328.400 C 358.856 328.400,359.193 328.232,359.267 328.028 C 359.483 327.424,364.620 327.299,364.500 327.900 C 364.380 328.498,365.445 328.574,365.804 327.993 C 365.942 327.770,366.268 327.721,366.528 327.884 C 367.121 328.258,372.055 328.298,371.678 327.927 C 371.525 327.776,370.680 327.582,369.800 327.494 C 368.367 327.351,368.420 327.327,370.300 327.267 C 371.817 327.219,372.400 327.348,372.400 327.733 C 372.400 328.027,372.670 328.267,373.000 328.267 C 373.330 328.267,373.600 328.007,373.600 327.691 C 373.600 327.374,373.833 327.204,374.117 327.313 C 375.278 327.758,376.121 326.518,375.882 324.716 C 375.676 323.156,375.707 323.071,376.229 323.778 C 376.727 324.454,376.802 307.957,376.799 197.709 L 376.795 70.862 375.898 69.792 C 375.404 69.204,374.460 68.131,373.800 67.408 C 373.140 66.685,372.330 65.677,372.000 65.168 C 371.670 64.659,370.860 63.658,370.200 62.943 C 369.540 62.229,368.190 60.705,367.200 59.557 C 366.210 58.409,364.995 57.058,364.500 56.553 C 364.005 56.049,363.597 55.493,363.594 55.318 C 363.591 55.143,362.421 53.767,360.994 52.259 C 359.567 50.752,358.400 49.371,358.400 49.191 C 358.400 49.011,357.635 48.077,356.700 47.116 C 355.765 46.156,354.730 44.943,354.400 44.423 C 354.070 43.902,353.385 43.103,352.879 42.647 C 352.372 42.192,351.202 40.825,350.279 39.609 C 349.356 38.394,348.105 36.923,347.500 36.340 C 346.895 35.756,346.400 35.071,346.400 34.816 C 346.400 34.561,346.247 34.447,346.060 34.563 C 345.873 34.678,345.483 34.329,345.193 33.786 C 344.902 33.244,344.515 32.800,344.332 32.800 C 344.150 32.800,344.000 32.530,344.000 32.200 C 344.000 31.870,343.826 31.600,343.614 31.600 C 343.402 31.600,342.794 30.961,342.264 30.180 C 341.733 29.398,340.391 27.793,339.283 26.613 C 338.174 25.432,337.357 24.376,337.468 24.265 C 337.579 24.155,337.204 23.759,336.635 23.386 C 336.066 23.013,335.600 22.547,335.600 22.350 C 335.600 22.154,335.060 21.428,334.400 20.737 C 333.740 20.046,333.200 19.317,333.200 19.117 C 333.200 18.917,333.020 18.864,332.800 19.000 C 332.580 19.136,332.400 19.012,332.400 18.724 C 332.399 18.020,330.587 15.946,330.260 16.274 C 330.117 16.417,330.000 16.325,330.000 16.071 C 330.000 15.590,329.232 14.554,327.700 12.968 C 327.205 12.456,326.800 11.891,326.800 11.713 C 326.800 11.535,326.324 11.032,325.742 10.596 C 325.161 10.159,324.279 9.171,323.782 8.401 C 323.286 7.630,322.232 6.325,321.440 5.499 C 320.648 4.674,320.000 3.863,320.000 3.697 C 320.000 3.258,316.866 -0.000,316.444 0.000 C 316.247 0.000,315.976 0.285,315.843 0.633 M61.600 36.000 C 61.600 36.220,61.300 36.400,60.933 36.400 C 60.567 36.400,60.378 36.511,60.514 36.648 C 60.650 36.784,60.499 37.158,60.177 37.480 C 59.856 37.801,59.687 38.218,59.803 38.405 C 59.918 38.592,59.837 38.853,59.623 38.986 C 59.077 39.323,59.046 71.600,59.591 71.600 C 59.864 71.600,60.030 118.942,60.098 216.633 L 60.200 361.666 61.506 362.833 L 62.813 364.000 171.306 364.005 C 230.978 364.008,280.205 364.119,280.700 364.252 L 281.600 364.493 281.594 379.947 C 281.588 395.987,281.464 397.366,279.855 399.244 C 279.199 400.010,279.343 400.020,290.605 399.988 C 298.256 399.966,301.936 399.820,301.767 399.547 C 301.628 399.322,301.894 398.786,302.357 398.354 C 303.042 397.716,303.200 397.684,303.200 398.184 C 303.200 398.523,303.391 398.800,303.625 398.800 C 303.859 398.800,303.994 398.468,303.925 398.061 C 303.856 397.655,304.034 397.041,304.319 396.697 C 304.668 396.277,304.701 395.986,304.419 395.812 C 304.138 395.638,304.000 390.410,304.000 379.976 L 304.000 364.400 308.827 364.400 L 313.654 364.400 315.027 362.944 L 316.400 361.488 316.400 344.950 L 316.400 328.412 328.300 328.300 C 334.845 328.238,285.867 328.145,219.460 328.094 L 98.720 328.000 97.360 326.640 L 96.000 325.280 96.000 180.440 L 96.000 35.600 78.800 35.600 C 67.600 35.600,61.600 35.740,61.600 36.000 M188.896 128.398 C 184.931 130.815,185.101 136.480,189.201 138.600 C 191.287 139.679,256.447 139.484,258.211 138.393 C 261.900 136.113,261.782 130.329,258.008 128.404 C 255.553 127.151,190.950 127.146,188.896 128.398 M164.981 149.600 C 164.981 157.850,165.034 161.225,165.099 157.100 C 165.164 152.975,165.164 146.225,165.099 142.100 C 165.034 137.975,164.981 141.350,164.981 149.600 M189.800 158.563 C 185.285 160.582,184.588 166.082,188.494 168.868 L 189.800 169.800 255.000 169.800 C 319.482 169.800,320.215 169.791,321.555 169.000 C 325.340 166.765,325.256 161.291,321.400 158.934 C 319.804 157.958,191.958 157.598,189.800 158.563 M150.500 166.698 C 152.645 166.770,156.155 166.770,158.300 166.698 C 160.445 166.626,158.690 166.567,154.400 166.567 C 150.110 166.567,148.355 166.626,150.500 166.698 M190.405 193.095 C 185.384 194.032,184.456 201.120,188.994 203.869 C 190.506 204.785,253.505 205.245,256.706 204.363 C 262.184 202.853,262.302 194.722,256.867 193.212 C 255.414 192.808,192.533 192.697,190.405 193.095 M164.981 215.200 C 164.981 223.450,165.034 226.825,165.099 222.700 C 165.164 218.575,165.164 211.825,165.099 207.700 C 165.034 203.575,164.981 206.950,164.981 215.200 M187.789 225.389 C 184.953 228.226,185.453 232.303,188.896 234.402 C 190.183 235.187,191.046 235.197,255.241 235.199 L 320.282 235.200 321.641 234.292 C 325.183 231.926,325.290 227.235,321.863 224.621 L 320.524 223.600 255.052 223.600 L 189.579 223.600 187.789 225.389 M132.562 230.700 C 132.981 231.195,133.611 231.586,133.962 231.568 C 134.504 231.542,134.509 231.503,134.000 231.316 C 133.670 231.195,133.040 230.804,132.600 230.448 C 131.807 229.806,131.806 229.808,132.562 230.700 M188.896 257.998 C 185.203 260.250,185.025 265.100,188.537 267.779 L 189.876 268.800 255.247 268.800 L 320.618 268.800 322.099 267.579 C 325.415 264.846,324.937 259.732,321.185 257.792 C 319.115 256.722,190.661 256.922,188.896 257.998 M141.474 262.699 C 145.255 262.765,151.555 262.765,155.474 262.699 C 159.393 262.634,156.300 262.580,148.600 262.580 C 140.900 262.580,137.693 262.634,141.474 262.699 M164.800 279.120 L 164.999 294.200 165.105 279.425 C 165.163 271.299,165.073 264.513,164.905 264.345 C 164.737 264.177,164.690 270.826,164.800 279.120 M188.926 288.611 C 185.181 290.856,184.973 295.957,188.524 298.490 L 189.800 299.400 223.429 299.400 L 257.059 299.400 258.507 298.407 C 262.184 295.888,261.497 289.938,257.327 288.195 C 256.105 287.685,251.263 287.601,223.251 287.604 L 190.600 287.608 188.926 288.611 M148.105 296.287 C 148.714 296.379,149.614 296.377,150.105 296.282 C 150.597 296.187,150.100 296.111,149.000 296.114 C 147.900 296.117,147.497 296.195,148.105 296.287 M302.246 399.375 C 302.367 399.691,302.720 399.852,303.031 399.733 C 303.706 399.474,303.387 398.800,302.589 398.800 C 302.263 398.800,302.118 399.043,302.246 399.375 " stroke="none" fill="#c9d0de" fill-rule="evenodd"/><path id="path3" d="M225.322 29.765 C 224.228 30.706,224.195 30.854,224.000 35.757 C 223.722 42.746,223.546 42.922,216.556 43.200 C 209.261 43.490,209.600 42.914,209.600 55.016 L 209.600 64.387 210.766 65.694 L 211.933 67.000 216.466 67.115 C 223.384 67.291,223.703 67.603,223.999 74.491 C 224.190 78.960,224.253 79.235,225.309 80.291 L 226.418 81.400 236.000 81.400 L 245.582 81.400 246.691 80.292 C 247.759 79.226,247.807 78.997,248.000 74.154 C 248.266 67.462,248.411 67.323,255.300 67.132 L 260.068 67.000 261.234 65.694 L 262.400 64.387 262.400 55.016 C 262.400 42.914,262.739 43.490,255.444 43.200 C 248.459 42.922,248.285 42.749,247.998 35.755 C 247.698 28.446,248.309 28.800,236.000 28.800 C 226.477 28.800,226.441 28.803,225.322 29.765 " stroke="none" fill="#fce47c" fill-rule="evenodd"/><path id="path4" d="M355.164 45.533 C 355.380 45.936,355.874 46.521,356.263 46.833 C 356.764 47.235,356.704 47.022,356.057 46.100 C 355.069 44.691,354.531 44.349,355.164 45.533 M141.526 133.500 C 145.555 133.565,152.035 133.565,155.926 133.499 C 159.817 133.434,156.520 133.380,148.600 133.381 C 140.680 133.381,137.497 133.434,141.526 133.500 M132.662 134.331 C 132.071 134.984,132.000 136.656,132.000 149.902 L 132.000 164.742 133.054 165.571 C 134.140 166.425,161.797 166.907,163.054 166.094 C 163.304 165.932,156.734 165.750,148.454 165.689 C 134.958 165.590,133.348 165.510,132.900 164.913 C 131.929 163.619,132.206 135.394,133.200 134.400 C 133.640 133.960,133.848 133.600,133.662 133.600 C 133.476 133.600,133.026 133.929,132.662 134.331 M163.434 133.906 C 163.673 134.068,164.073 134.560,164.322 135.000 C 164.658 135.593,164.779 135.640,164.788 135.180 C 164.802 134.471,164.042 133.597,163.420 133.606 C 163.139 133.610,163.144 133.710,163.434 133.906 M133.054 199.229 L 132.000 200.058 132.000 214.967 C 132.000 229.789,132.005 229.880,132.872 230.638 L 133.745 231.400 133.072 230.411 C 132.195 229.120,132.036 201.038,132.900 199.887 C 133.348 199.290,134.959 199.210,148.459 199.111 C 156.741 199.050,163.436 198.865,163.335 198.700 C 162.832 197.873,134.140 198.375,133.054 199.229 M141.500 231.499 C 145.515 231.565,152.085 231.565,156.100 231.499 C 160.115 231.434,156.830 231.381,148.800 231.381 C 140.770 231.381,137.485 231.434,141.500 231.499 M141.526 263.100 C 145.555 263.165,152.035 263.165,155.926 263.099 C 159.817 263.034,156.520 262.980,148.600 262.981 C 140.680 262.981,137.497 263.034,141.526 263.100 M132.662 263.931 C 131.506 265.209,131.672 293.979,132.841 295.038 C 133.634 295.756,134.518 295.802,148.141 295.843 L 162.600 295.886 148.000 295.515 C 135.299 295.192,133.335 295.059,132.900 294.495 C 132.521 294.004,132.400 290.295,132.400 279.146 L 132.400 264.445 133.289 263.823 C 133.778 263.480,133.986 263.200,133.751 263.200 C 133.516 263.200,133.026 263.529,132.662 263.931 M163.771 263.829 C 164.117 264.174,164.400 264.654,164.400 264.895 C 164.400 265.136,164.505 265.229,164.632 265.101 C 164.956 264.777,164.064 263.200,163.557 263.200 C 163.329 263.200,163.426 263.483,163.771 263.829 M164.218 294.344 C 164.077 294.787,163.656 295.229,163.281 295.328 C 162.644 295.496,162.644 295.510,163.286 295.554 C 163.950 295.599,165.065 294.132,164.669 293.736 C 164.561 293.628,164.358 293.902,164.218 294.344 M316.400 344.969 L 316.400 361.538 315.200 362.738 C 314.540 363.398,314.000 364.042,314.000 364.169 C 314.000 364.296,319.537 364.400,326.305 364.400 L 338.610 364.400 339.405 363.353 C 341.066 361.166,341.138 360.379,341.170 344.100 L 341.200 328.400 328.800 328.400 L 316.400 328.400 316.400 344.969 " stroke="none" fill="#bfbac2" fill-rule="evenodd"/></g></svg>
