<svg xmlns="http://www.w3.org/2000/svg" xmlns:xlink="http://www.w3.org/1999/xlink" id="svg" version="1.1" width="24" height="24" viewBox="0, 0, 400,400"><g id="svgg"><path id="path0" d="M195.200 29.838 C 182.149 31.390,179.617 40.347,188.554 53.351 C 189.899 55.308,191.180 57.198,191.400 57.549 C 191.620 57.901,192.070 58.462,192.400 58.795 C 192.730 59.129,194.348 60.931,195.994 62.801 C 200.287 67.673,199.784 67.569,202.781 64.200 C 203.955 62.880,205.480 61.170,206.169 60.400 C 206.859 59.630,207.859 58.370,208.392 57.600 C 208.925 56.830,209.475 56.110,209.613 56.000 C 210.250 55.494,213.961 49.517,215.191 47.016 C 218.492 40.307,216.099 33.077,209.972 31.246 C 208.997 30.955,207.759 30.543,207.219 30.330 C 206.168 29.916,197.523 29.562,195.200 29.838 M193.000 100.598 C 185.273 101.821,179.513 104.060,171.457 108.970 C 161.604 114.976,151.136 118.594,139.455 120.030 L 135.511 120.515 135.694 132.957 C 135.812 141.020,136.053 146.104,136.379 147.400 C 136.655 148.500,137.055 150.120,137.269 151.000 C 137.741 152.952,139.120 157.505,139.570 158.600 C 144.148 169.740,149.068 176.007,163.764 189.418 C 166.163 191.608,168.683 193.941,169.364 194.601 C 179.467 204.418,184.187 207.984,189.530 209.837 C 201.217 213.892,212.483 211.291,222.400 202.248 C 243.530 182.981,249.028 177.507,253.404 171.379 C 256.146 167.539,260.800 158.616,260.800 157.199 C 260.800 156.974,260.962 156.477,261.161 156.095 C 261.509 155.425,262.109 153.330,262.792 150.400 C 262.972 149.630,263.338 148.100,263.607 147.000 C 263.908 145.765,264.174 140.295,264.302 132.700 L 264.509 120.400 263.119 120.400 C 261.725 120.400,255.823 119.535,252.331 118.819 C 246.177 117.557,235.162 113.000,228.553 108.981 C 216.023 101.362,204.836 98.725,193.000 100.598 M283.200 107.193 C 283.200 110.011,281.300 113.965,278.756 116.443 L 276.835 118.314 276.717 130.158 L 276.600 142.001 277.462 142.000 C 279.972 141.999,284.531 138.092,286.329 134.400 L 287.400 132.200 287.400 119.712 C 287.400 105.754,287.439 105.948,284.499 105.360 L 283.200 105.100 283.200 107.193 M114.909 106.684 C 114.269 107.662,114.200 108.963,114.200 119.984 L 114.200 132.200 115.336 134.513 C 116.944 137.788,122.987 143.170,123.702 141.964 C 123.756 141.874,123.710 136.490,123.600 130.000 L 123.400 118.199 121.493 116.442 C 119.269 114.393,117.410 110.772,117.003 107.700 C 116.686 105.309,116.020 104.986,114.909 106.684 M171.685 119.460 C 174.468 120.859,176.268 124.723,175.524 127.701 C 173.365 136.334,160.760 135.198,160.640 126.359 C 160.596 123.135,162.907 119.532,165.358 119.005 C 168.091 118.417,169.865 118.545,171.685 119.460 M236.320 119.943 C 242.322 124.217,239.338 133.600,231.976 133.600 C 224.392 133.600,221.510 123.884,227.861 119.723 C 230.057 118.284,234.139 118.390,236.320 119.943 M218.671 169.435 C 221.999 171.898,221.883 176.793,218.441 179.092 L 217.082 180.000 200.121 180.000 C 180.613 180.000,180.992 180.068,179.300 176.281 C 178.205 173.830,179.668 170.061,182.137 168.974 C 184.486 167.940,217.209 168.353,218.671 169.435 M156.950 200.586 C 156.487 201.793,157.051 227.611,157.552 228.112 C 157.798 228.358,158.003 228.929,158.006 229.380 C 158.013 230.292,158.899 233.033,159.326 233.459 C 159.477 233.610,159.600 234.063,159.600 234.467 C 159.600 234.870,159.780 235.200,160.000 235.200 C 160.220 235.200,160.400 235.486,160.400 235.835 C 160.400 237.640,165.774 244.154,169.741 247.155 C 173.793 250.222,176.847 251.670,182.600 253.250 C 185.372 254.012,215.704 254.057,216.460 253.300 C 216.735 253.025,217.543 252.800,218.256 252.800 C 218.969 252.800,219.664 252.620,219.800 252.400 C 219.936 252.180,220.399 252.000,220.829 252.000 C 221.259 252.000,221.923 251.841,222.305 251.647 C 222.687 251.452,223.540 251.048,224.200 250.749 C 228.426 248.830,237.200 241.420,237.200 239.769 C 237.200 239.645,237.740 238.759,238.400 237.800 C 239.060 236.841,239.600 235.773,239.600 235.428 C 239.600 235.083,239.780 234.800,240.000 234.800 C 240.220 234.800,240.400 234.528,240.400 234.195 C 240.400 233.607,240.567 233.182,241.538 231.305 C 241.792 230.813,242.000 229.904,242.000 229.285 C 242.000 228.666,242.182 227.978,242.405 227.755 C 242.668 227.492,242.774 222.554,242.705 213.775 L 242.600 200.201 239.600 203.054 C 232.089 210.196,227.848 213.927,226.051 214.973 C 225.698 215.178,225.060 215.672,224.633 216.070 C 222.801 217.776,215.678 220.952,210.600 222.326 C 204.893 223.870,194.421 223.756,188.400 222.084 C 184.191 220.915,177.076 217.626,175.298 216.028 C 174.914 215.683,173.969 214.930,173.200 214.355 C 171.716 213.247,171.548 213.096,164.433 206.460 C 156.819 199.358,157.282 199.722,156.950 200.586 M87.462 212.731 C 86.855 213.402,86.800 216.809,86.800 253.531 L 86.800 293.600 94.400 293.600 L 102.000 293.600 102.007 275.900 C 102.013 258.325,102.019 258.189,102.907 256.622 C 104.937 253.039,109.906 252.389,112.542 255.363 C 114.141 257.166,114.195 257.764,114.400 275.998 L 114.600 293.797 116.157 294.307 C 123.994 296.873,129.942 303.223,131.800 311.005 C 132.623 314.452,132.649 379.074,131.829 382.400 C 130.788 386.623,129.737 388.774,127.140 391.997 C 126.073 393.321,125.200 394.493,125.200 394.602 C 125.200 394.711,129.138 394.800,133.951 394.800 L 142.703 394.800 143.192 393.500 C 144.406 390.271,145.248 389.381,147.960 388.461 C 148.922 388.135,155.843 388.000,171.660 388.000 L 194.000 388.000 194.000 358.833 C 194.000 329.007,193.978 328.400,192.874 328.400 C 191.741 328.400,136.923 273.088,134.185 269.182 C 132.102 266.209,128.675 259.871,127.492 256.800 C 127.280 256.250,126.948 255.487,126.753 255.105 C 126.559 254.723,126.400 254.059,126.400 253.629 C 126.400 253.199,126.220 252.736,126.000 252.600 C 125.780 252.464,125.600 251.971,125.600 251.505 C 125.600 251.038,125.436 250.104,125.235 249.428 C 124.025 245.358,123.880 243.473,123.646 228.761 C 123.451 216.542,123.285 213.184,122.851 212.661 C 121.963 211.592,88.433 211.659,87.462 212.731 M277.149 212.661 C 276.715 213.185,276.548 216.548,276.350 228.761 C 276.113 243.434,275.962 245.403,274.765 249.428 C 274.564 250.104,274.400 251.038,274.400 251.505 C 274.400 251.971,274.220 252.464,274.000 252.600 C 273.780 252.736,273.600 253.276,273.600 253.800 C 273.600 254.324,273.420 254.864,273.200 255.000 C 272.980 255.136,272.800 255.515,272.800 255.843 C 272.800 257.562,268.259 265.976,264.837 270.600 C 262.707 273.477,209.153 327.285,207.649 328.059 C 207.072 328.356,206.468 328.779,206.306 328.999 C 206.144 329.220,206.009 342.585,206.006 358.700 L 206.000 388.000 259.600 388.000 L 313.200 388.000 313.200 300.662 C 313.200 216.558,313.173 213.299,312.469 212.662 C 311.352 211.652,277.987 211.651,277.149 212.661 M300.219 330.609 C 305.005 333.569,305.594 335.833,305.578 351.200 C 305.560 366.882,304.960 368.931,299.488 371.962 C 297.110 373.279,236.092 373.280,233.712 371.963 C 228.094 368.854,227.800 367.822,227.800 351.228 C 227.800 334.898,228.042 333.836,232.427 330.935 C 234.929 329.279,235.147 329.269,267.432 329.336 L 298.263 329.400 300.219 330.609 M239.843 341.433 C 239.709 341.781,239.600 346.282,239.600 351.436 L 239.600 360.806 266.500 360.703 L 293.400 360.600 293.507 351.250 C 293.583 344.689,293.479 341.736,293.159 341.350 C 292.418 340.458,240.186 340.539,239.843 341.433 M30.495 372.700 L 30.600 388.200 38.789 388.309 C 48.859 388.442,48.214 388.679,46.943 385.318 C 45.938 382.661,45.910 382.317,45.707 369.900 L 45.498 357.200 37.945 357.200 L 30.391 357.200 30.495 372.700 M325.200 372.557 C 325.200 386.192,325.271 387.942,325.833 388.157 C 326.668 388.478,343.387 388.466,357.735 388.136 L 369.200 387.871 369.200 372.536 L 369.200 357.200 347.200 357.200 L 325.200 357.200 325.200 372.557 " stroke="none" fill="#f3d283" fill-rule="evenodd"/><path id="path1" d="M129.200 88.354 L 129.200 107.108 130.186 107.754 C 131.305 108.487,136.979 108.681,137.400 108.000 C 137.536 107.780,138.796 107.600,140.200 107.600 C 141.604 107.600,142.864 107.420,143.000 107.200 C 143.136 106.980,143.946 106.800,144.800 106.800 C 145.654 106.800,146.464 106.620,146.600 106.400 C 146.736 106.180,147.379 106.000,148.029 106.000 C 148.679 106.000,149.613 105.792,150.105 105.538 C 151.984 104.566,152.407 104.400,153.000 104.400 C 153.336 104.400,153.923 104.239,154.305 104.042 C 154.687 103.845,156.980 102.733,159.400 101.571 C 161.820 100.409,164.706 98.880,165.813 98.173 C 168.977 96.151,175.607 92.800,176.443 92.800 C 176.859 92.800,177.200 92.620,177.200 92.400 C 177.200 92.180,177.549 92.000,177.976 92.000 C 178.403 92.000,178.864 91.820,179.000 91.600 C 179.136 91.380,179.676 91.200,180.200 91.200 C 180.724 91.200,181.264 91.020,181.400 90.800 C 181.536 90.580,182.166 90.400,182.800 90.400 C 183.434 90.400,184.052 90.239,184.174 90.042 C 184.295 89.845,185.071 89.581,185.897 89.454 C 186.724 89.327,188.570 89.014,190.000 88.759 C 194.871 87.888,212.019 88.259,212.630 89.249 C 212.749 89.442,213.456 89.600,214.200 89.600 C 214.944 89.600,215.664 89.780,215.800 90.000 C 215.936 90.220,216.566 90.400,217.200 90.400 C 217.834 90.400,218.464 90.580,218.600 90.800 C 218.736 91.020,219.199 91.200,219.629 91.200 C 220.059 91.200,220.723 91.359,221.105 91.553 C 221.487 91.748,222.340 92.129,223.000 92.400 C 223.660 92.671,224.513 93.052,224.895 93.247 C 225.277 93.441,225.847 93.600,226.161 93.600 C 226.476 93.600,226.793 93.735,226.867 93.900 C 226.940 94.065,227.898 94.650,228.996 95.200 C 230.094 95.750,232.524 97.110,234.396 98.223 C 236.268 99.335,239.420 101.019,241.400 101.963 C 243.380 102.908,245.313 103.843,245.695 104.041 C 246.077 104.238,246.722 104.400,247.128 104.400 C 247.534 104.400,247.990 104.523,248.141 104.674 C 248.580 105.113,251.319 105.987,252.276 105.994 C 252.758 105.997,253.264 106.180,253.400 106.400 C 254.269 107.805,254.400 105.445,254.400 88.443 C 254.400 72.072,254.332 70.059,253.767 69.843 C 253.419 69.709,244.478 69.600,233.897 69.600 L 214.660 69.600 212.430 71.959 C 211.203 73.256,209.548 75.016,208.750 75.870 C 206.271 78.525,204.159 79.348,199.881 79.325 C 195.156 79.300,194.195 78.783,189.182 73.570 L 185.364 69.600 157.282 69.600 L 129.200 69.600 129.200 88.354 M136.094 231.900 C 136.309 245.354,137.374 250.705,141.091 257.000 C 141.610 257.880,142.138 258.915,142.264 259.300 C 142.390 259.685,142.652 260.000,142.847 260.000 C 143.041 260.000,143.203 260.225,143.207 260.500 C 143.226 261.807,146.110 264.818,175.727 294.456 C 195.978 314.722,199.002 317.600,200.048 317.600 C 201.233 317.600,250.896 268.623,254.224 264.173 C 254.871 263.308,255.715 262.252,256.100 261.825 C 256.485 261.398,256.800 260.813,256.800 260.525 C 256.800 260.236,256.980 260.000,257.200 260.000 C 257.420 260.000,257.600 259.764,257.600 259.475 C 257.600 259.187,257.960 258.564,258.400 258.092 C 258.840 257.620,259.200 256.956,259.200 256.617 C 259.200 256.278,259.380 256.000,259.600 256.000 C 259.820 256.000,260.000 255.728,260.000 255.395 C 260.000 255.062,260.159 254.477,260.353 254.095 C 261.648 251.550,262.562 248.489,263.584 243.280 C 263.813 242.114,264.000 236.579,264.000 230.980 L 264.000 220.800 259.800 220.800 L 255.600 220.800 255.600 222.223 C 255.600 230.850,251.672 241.537,245.618 249.383 C 242.913 252.888,233.936 260.400,232.451 260.400 C 232.240 260.400,232.007 260.535,231.933 260.700 C 231.805 260.988,228.780 262.521,226.900 263.251 C 226.405 263.443,225.595 263.766,225.100 263.970 C 224.605 264.173,223.660 264.451,223.000 264.588 C 222.340 264.724,221.080 265.022,220.200 265.249 C 215.514 266.457,184.205 266.794,181.000 265.670 C 180.340 265.439,178.990 265.037,178.000 264.778 C 174.297 263.809,168.794 261.623,168.000 260.805 C 167.890 260.691,167.341 260.363,166.780 260.075 C 157.799 255.459,146.000 239.549,146.000 232.053 C 146.000 231.452,145.840 230.789,145.643 230.580 C 145.447 230.371,145.167 229.030,145.019 227.600 C 144.872 226.170,144.656 224.055,144.539 222.900 L 144.326 220.800 140.121 220.800 L 135.917 220.800 136.094 231.900 M69.940 239.072 C 67.883 240.541,66.110 241.851,66.000 241.982 C 65.890 242.114,64.637 243.206,63.216 244.410 C 59.575 247.496,53.923 253.492,50.783 257.600 C 50.026 258.590,49.091 259.749,48.704 260.175 C 48.317 260.602,48.000 261.172,48.000 261.442 C 48.000 261.712,47.855 261.993,47.677 262.067 C 47.209 262.259,44.800 265.865,44.800 266.372 C 44.800 266.607,44.665 266.801,44.500 266.803 C 44.335 266.805,44.002 267.210,43.759 267.703 C 43.517 268.196,42.503 270.130,41.506 272.000 C 39.062 276.584,36.149 283.803,34.767 288.700 C 34.565 289.415,34.206 290.675,33.970 291.500 C 33.147 294.369,32.081 299.663,31.533 303.600 C 31.304 305.250,31.040 315.285,30.947 325.900 L 30.778 345.200 37.972 345.200 L 45.166 345.200 45.326 329.300 C 45.503 311.813,45.677 310.135,47.773 305.722 C 50.045 300.939,57.488 294.400,60.662 294.400 C 60.964 294.400,61.523 294.218,61.905 293.997 C 62.287 293.775,65.210 293.460,68.400 293.297 L 74.200 293.000 74.303 264.700 C 74.363 247.987,74.257 236.400,74.043 236.400 C 73.844 236.400,71.998 237.602,69.940 239.072 M325.784 251.300 C 325.680 251.575,325.640 272.770,325.697 298.400 L 325.800 345.000 339.800 345.000 L 353.800 345.000 353.928 330.800 C 354.083 313.665,353.713 309.413,351.110 298.400 C 349.879 293.194,346.990 284.079,346.362 283.420 C 346.163 283.211,346.000 282.817,346.000 282.545 C 346.000 280.400,336.135 262.885,332.252 258.135 C 331.921 257.731,330.449 255.915,328.982 254.100 C 326.138 250.584,326.077 250.531,325.784 251.300 " stroke="none" fill="#437393" fill-rule="evenodd"/><path id="path2" d="M166.050 6.976 C 164.998 10.539,163.006 11.594,157.320 11.598 C 142.914 11.608,130.648 22.569,128.773 37.108 C 128.582 38.589,128.420 43.805,128.413 48.700 L 128.400 57.600 152.600 57.600 C 165.910 57.600,176.800 57.539,176.800 57.464 C 176.800 57.389,175.925 55.610,174.856 53.511 C 164.922 33.997,176.392 18.000,200.318 18.000 C 223.938 18.000,235.289 34.850,224.786 54.322 C 223.914 55.939,223.200 57.338,223.200 57.431 C 223.200 57.524,233.997 57.600,247.192 57.600 L 271.185 57.600 271.447 56.555 C 271.919 54.673,271.283 36.382,270.662 34.000 C 268.007 23.813,260.748 16.124,250.600 12.747 L 247.800 11.816 217.000 11.608 C 187.073 11.406,186.161 11.377,184.832 10.597 C 183.395 9.752,182.159 7.940,181.934 6.346 L 181.800 5.400 174.190 5.292 L 166.580 5.183 166.050 6.976 M128.900 69.065 C 128.510 69.222,128.400 73.398,128.400 88.052 L 128.400 106.836 129.382 107.818 C 130.249 108.685,130.712 108.800,133.353 108.800 C 143.789 108.800,154.372 105.574,165.600 98.970 C 181.934 89.363,194.525 86.800,211.400 89.648 C 218.383 90.827,228.811 95.086,234.800 99.206 C 238.665 101.865,247.131 105.482,252.400 106.726 C 256.631 107.724,258.018 107.971,261.941 108.420 C 267.296 109.033,269.913 108.795,270.875 107.607 C 271.712 106.573,272.028 69.911,271.203 69.402 C 270.985 69.267,258.160 69.052,242.703 68.925 L 214.600 68.692 210.814 72.806 C 203.075 81.216,196.974 81.233,189.241 72.866 L 185.483 68.800 157.442 68.832 C 142.019 68.849,129.175 68.954,128.900 69.065 M189.182 73.570 C 194.195 78.783,195.156 79.300,199.881 79.325 C 204.159 79.348,206.271 78.525,208.750 75.870 C 209.548 75.016,211.203 73.256,212.430 71.959 L 214.660 69.600 233.897 69.600 C 244.478 69.600,253.419 69.709,253.767 69.843 C 254.332 70.059,254.400 72.072,254.400 88.443 C 254.400 105.445,254.269 107.805,253.400 106.400 C 253.264 106.180,252.758 105.997,252.276 105.994 C 251.319 105.987,248.580 105.113,248.141 104.674 C 247.990 104.523,247.534 104.400,247.128 104.400 C 246.722 104.400,246.077 104.238,245.695 104.041 C 245.313 103.843,243.380 102.908,241.400 101.963 C 239.420 101.019,236.268 99.335,234.396 98.223 C 232.524 97.110,230.094 95.750,228.996 95.200 C 227.898 94.650,226.940 94.065,226.867 93.900 C 226.793 93.735,226.476 93.600,226.161 93.600 C 225.847 93.600,225.277 93.441,224.895 93.247 C 224.513 93.052,223.660 92.671,223.000 92.400 C 222.340 92.129,221.487 91.748,221.105 91.553 C 220.723 91.359,220.059 91.200,219.629 91.200 C 219.199 91.200,218.736 91.020,218.600 90.800 C 218.464 90.580,217.834 90.400,217.200 90.400 C 216.566 90.400,215.936 90.220,215.800 90.000 C 215.664 89.780,214.944 89.600,214.200 89.600 C 213.456 89.600,212.749 89.442,212.630 89.249 C 212.019 88.259,194.871 87.888,190.000 88.759 C 188.570 89.014,186.724 89.327,185.897 89.454 C 185.071 89.581,184.295 89.845,184.174 90.042 C 184.052 90.239,183.434 90.400,182.800 90.400 C 182.166 90.400,181.536 90.580,181.400 90.800 C 181.264 91.020,180.724 91.200,180.200 91.200 C 179.676 91.200,179.136 91.380,179.000 91.600 C 178.864 91.820,178.403 92.000,177.976 92.000 C 177.549 92.000,177.200 92.180,177.200 92.400 C 177.200 92.620,176.859 92.800,176.443 92.800 C 175.607 92.800,168.977 96.151,165.813 98.173 C 164.706 98.880,161.820 100.409,159.400 101.571 C 156.980 102.733,154.687 103.845,154.305 104.042 C 153.923 104.239,153.336 104.400,153.000 104.400 C 152.407 104.400,151.984 104.566,150.105 105.538 C 149.613 105.792,148.679 106.000,148.029 106.000 C 147.379 106.000,146.736 106.180,146.600 106.400 C 146.464 106.620,145.654 106.800,144.800 106.800 C 143.946 106.800,143.136 106.980,143.000 107.200 C 142.864 107.420,141.604 107.600,140.200 107.600 C 138.796 107.600,137.536 107.780,137.400 108.000 C 136.979 108.681,131.305 108.487,130.186 107.754 L 129.200 107.108 129.200 88.354 L 129.200 69.600 157.282 69.600 L 185.364 69.600 189.182 73.570 M198.100 99.894 C 199.145 99.976,200.855 99.976,201.900 99.894 C 202.945 99.812,202.090 99.744,200.000 99.744 C 197.910 99.744,197.055 99.812,198.100 99.894 M287.904 116.137 C 288.071 130.455,288.234 131.828,288.313 119.600 C 288.354 113.330,288.256 107.992,288.094 107.737 C 287.932 107.482,287.847 111.262,287.904 116.137 M113.449 108.215 C 113.312 108.573,113.239 113.576,113.287 119.333 L 113.375 129.800 113.587 118.800 C 113.816 106.969,113.820 107.250,113.449 108.215 M278.175 116.100 L 277.000 117.400 278.300 116.225 C 279.015 115.579,279.600 114.994,279.600 114.925 C 279.600 114.616,279.270 114.888,278.175 116.100 M124.177 129.800 C 124.177 136.180,124.232 138.734,124.299 135.476 C 124.367 132.217,124.366 126.997,124.299 123.876 C 124.231 120.754,124.176 123.420,124.177 129.800 M264.971 129.600 C 264.971 134.550,265.028 136.575,265.099 134.100 C 265.169 131.625,265.169 127.575,265.099 125.100 C 265.028 122.625,264.971 124.650,264.971 129.600 M160.909 126.000 C 160.909 126.990,160.987 127.395,161.082 126.900 C 161.178 126.405,161.178 125.595,161.082 125.100 C 160.987 124.605,160.909 125.010,160.909 126.000 M238.914 126.200 C 238.917 127.300,238.995 127.703,239.087 127.095 C 239.179 126.486,239.177 125.586,239.082 125.095 C 238.987 124.603,238.911 125.100,238.914 126.200 M283.775 138.900 L 282.600 140.200 283.900 139.025 C 284.615 138.379,285.200 137.794,285.200 137.725 C 285.200 137.416,284.870 137.688,283.775 138.900 M275.763 140.568 C 275.790 142.312,275.958 142.980,276.400 143.099 C 276.819 143.212,276.856 143.158,276.524 142.922 C 276.262 142.735,275.975 141.596,275.887 140.391 L 275.725 138.200 275.763 140.568 M220.501 174.200 C 220.505 175.080,220.587 175.393,220.683 174.895 C 220.779 174.398,220.775 173.678,220.675 173.295 C 220.575 172.913,220.496 173.320,220.501 174.200 M149.200 176.125 C 149.200 176.194,149.785 176.779,150.500 177.425 L 151.800 178.600 150.625 177.300 C 149.530 176.088,149.200 175.816,149.200 176.125 M156.400 183.400 C 157.146 184.170,157.847 184.800,157.957 184.800 C 158.067 184.800,157.546 184.170,156.800 183.400 C 156.054 182.630,155.353 182.000,155.243 182.000 C 155.133 182.000,155.654 182.630,156.400 183.400 M242.378 184.300 L 241.000 185.800 242.500 184.422 C 243.896 183.138,244.184 182.800,243.878 182.800 C 243.812 182.800,243.137 183.475,242.378 184.300 M237.375 188.900 L 236.200 190.200 237.500 189.025 C 238.215 188.379,238.800 187.794,238.800 187.725 C 238.800 187.416,238.470 187.688,237.375 188.900 M167.000 193.200 C 167.859 194.080,168.652 194.800,168.762 194.800 C 168.872 194.800,168.259 194.080,167.400 193.200 C 166.541 192.320,165.748 191.600,165.638 191.600 C 165.528 191.600,166.141 192.320,167.000 193.200 M231.375 194.500 L 230.200 195.800 231.500 194.625 C 232.215 193.979,232.800 193.394,232.800 193.325 C 232.800 193.016,232.470 193.288,231.375 194.500 M172.600 198.400 C 173.459 199.280,174.252 200.000,174.362 200.000 C 174.472 200.000,173.859 199.280,173.000 198.400 C 172.141 197.520,171.348 196.800,171.238 196.800 C 171.128 196.800,171.741 197.520,172.600 198.400 M156.176 210.600 C 156.176 216.760,156.232 219.224,156.299 216.076 C 156.367 212.927,156.367 207.887,156.299 204.876 C 156.231 201.864,156.176 204.440,156.176 210.600 M243.776 210.800 C 243.776 217.070,243.832 219.635,243.899 216.500 C 243.967 213.365,243.967 208.235,243.899 205.100 C 243.832 201.965,243.776 204.530,243.776 210.800 M159.200 200.925 C 159.200 200.994,159.785 201.579,160.500 202.225 L 161.800 203.400 160.625 202.100 C 159.530 200.888,159.200 200.616,159.200 200.925 M238.378 203.100 L 237.000 204.600 238.500 203.222 C 239.896 201.938,240.184 201.600,239.878 201.600 C 239.812 201.600,239.137 202.275,238.378 203.100 M165.200 206.600 C 165.946 207.370,166.647 208.000,166.757 208.000 C 166.867 208.000,166.346 207.370,165.600 206.600 C 164.854 205.830,164.153 205.200,164.043 205.200 C 163.933 205.200,164.454 205.830,165.200 206.600 M233.375 207.700 L 232.200 209.000 233.500 207.825 C 234.215 207.179,234.800 206.594,234.800 206.525 C 234.800 206.216,234.470 206.488,233.375 207.700 M124.177 225.600 C 124.177 232.090,124.232 234.745,124.299 231.500 C 124.366 228.255,124.366 222.945,124.299 219.700 C 124.232 216.455,124.177 219.110,124.177 225.600 M275.778 226.600 C 275.778 233.420,275.832 236.266,275.899 232.925 C 275.966 229.584,275.966 224.004,275.899 220.525 C 275.833 217.046,275.778 219.780,275.778 226.600 M135.207 229.900 C 135.219 245.694,137.444 253.995,144.083 263.000 C 146.421 266.173,197.206 317.350,198.900 318.242 C 199.861 318.747,200.139 318.747,201.100 318.237 C 202.449 317.522,251.884 267.985,254.725 264.501 C 262.276 255.243,264.800 246.556,264.800 229.823 L 264.800 220.400 259.800 220.400 L 254.800 220.400 254.799 222.900 C 254.796 238.147,244.047 254.609,229.800 261.186 C 224.732 263.525,224.538 263.588,217.523 265.175 C 214.998 265.747,185.002 265.747,182.477 265.175 C 181.445 264.942,179.790 264.564,178.800 264.337 C 160.224 260.064,145.216 241.376,145.202 222.500 L 145.200 220.400 140.200 220.400 L 135.200 220.400 135.207 229.900 M144.539 222.900 C 144.656 224.055,144.872 226.170,145.019 227.600 C 145.167 229.030,145.447 230.371,145.643 230.580 C 145.840 230.789,146.000 231.452,146.000 232.053 C 146.000 239.549,157.799 255.459,166.780 260.075 C 167.341 260.363,167.890 260.691,168.000 260.805 C 168.794 261.623,174.297 263.809,178.000 264.778 C 178.990 265.037,180.340 265.439,181.000 265.670 C 184.205 266.794,215.514 266.457,220.200 265.249 C 221.080 265.022,222.340 264.724,223.000 264.588 C 223.660 264.451,224.605 264.173,225.100 263.970 C 225.595 263.766,226.405 263.443,226.900 263.251 C 228.780 262.521,231.805 260.988,231.933 260.700 C 232.007 260.535,232.240 260.400,232.451 260.400 C 233.936 260.400,242.913 252.888,245.618 249.383 C 251.672 241.537,255.600 230.850,255.600 222.223 L 255.600 220.800 259.800 220.800 L 264.000 220.800 264.000 230.980 C 264.000 236.579,263.813 242.114,263.584 243.280 C 262.562 248.489,261.648 251.550,260.353 254.095 C 260.159 254.477,260.000 255.062,260.000 255.395 C 260.000 255.728,259.820 256.000,259.600 256.000 C 259.380 256.000,259.200 256.278,259.200 256.617 C 259.200 256.956,258.840 257.620,258.400 258.092 C 257.960 258.564,257.600 259.187,257.600 259.475 C 257.600 259.764,257.420 260.000,257.200 260.000 C 256.980 260.000,256.800 260.236,256.800 260.525 C 256.800 260.813,256.485 261.398,256.100 261.825 C 255.715 262.252,254.871 263.308,254.224 264.173 C 250.896 268.623,201.233 317.600,200.048 317.600 C 199.002 317.600,195.978 314.722,175.727 294.456 C 146.110 264.818,143.226 261.807,143.207 260.500 C 143.203 260.225,143.041 260.000,142.847 260.000 C 142.652 260.000,142.390 259.685,142.264 259.300 C 142.138 258.915,141.610 257.880,141.091 257.000 C 137.374 250.705,136.309 245.354,136.094 231.900 L 135.917 220.800 140.121 220.800 L 144.326 220.800 144.539 222.900 M196.500 223.076 C 196.885 223.176,197.515 223.176,197.900 223.076 C 198.285 222.975,197.970 222.893,197.200 222.893 C 196.430 222.893,196.115 222.975,196.500 223.076 M202.100 223.076 C 202.485 223.176,203.115 223.176,203.500 223.076 C 203.885 222.975,203.570 222.893,202.800 222.893 C 202.030 222.893,201.715 222.975,202.100 223.076 M71.787 237.019 C 51.353 250.686,35.818 274.600,31.655 298.800 C 31.409 300.230,31.006 302.570,30.760 304.000 C 30.034 308.218,29.760 344.803,30.452 345.240 C 31.068 345.631,44.383 345.735,45.367 345.357 C 45.931 345.141,45.996 343.336,45.960 328.857 C 45.938 319.916,45.776 313.050,45.600 313.600 C 45.424 314.150,45.262 321.485,45.240 329.900 L 45.200 345.200 37.989 345.200 L 30.778 345.200 30.947 325.900 C 31.105 307.890,31.321 303.699,32.357 298.600 C 33.345 293.738,33.508 293.066,34.789 288.600 C 36.207 283.659,39.094 276.523,41.506 272.000 C 42.503 270.130,43.517 268.196,43.759 267.703 C 44.002 267.210,44.335 266.805,44.500 266.803 C 44.665 266.801,44.800 266.607,44.800 266.372 C 44.800 265.865,47.209 262.259,47.677 262.067 C 47.855 261.993,48.000 261.712,48.000 261.442 C 48.000 261.172,48.317 260.602,48.704 260.175 C 49.091 259.749,50.026 258.590,50.783 257.600 C 53.923 253.492,59.575 247.496,63.216 244.410 C 64.637 243.206,65.890 242.114,66.000 241.982 C 66.461 241.432,73.711 236.400,74.043 236.400 C 74.257 236.400,74.363 247.987,74.303 264.700 L 74.200 293.000 70.400 293.223 L 66.600 293.447 70.657 293.523 C 74.035 293.587,74.755 293.494,74.957 292.967 C 75.300 292.073,75.205 236.755,74.859 235.877 C 74.604 235.233,74.272 235.356,71.787 237.019 M325.065 246.901 C 324.577 268.545,324.744 344.584,325.280 345.120 C 325.835 345.675,339.324 345.763,358.353 345.334 L 370.106 345.069 369.888 326.034 C 369.765 315.297,369.480 305.867,369.234 304.400 C 367.755 295.573,367.503 294.405,365.919 289.000 C 363.953 282.295,360.969 275.243,357.224 268.456 C 356.058 266.342,355.601 265.044,355.602 263.856 C 355.604 262.302,355.887 261.666,357.747 259.049 C 358.557 257.909,358.405 257.577,355.645 254.439 C 355.180 253.910,354.800 253.363,354.800 253.222 C 354.800 252.635,348.929 246.800,348.337 246.800 C 347.982 246.800,347.176 247.069,346.546 247.398 C 343.784 248.838,342.071 248.218,337.200 244.015 C 333.837 241.114,329.720 238.015,326.420 235.901 L 325.329 235.202 325.065 246.901 M328.982 254.100 C 330.449 255.915,331.921 257.731,332.252 258.135 C 336.135 262.885,346.000 280.400,346.000 282.545 C 346.000 282.817,346.163 283.211,346.362 283.420 C 346.990 284.079,349.879 293.194,351.110 298.400 C 353.713 309.413,354.083 313.665,353.928 330.800 L 353.800 345.000 339.800 345.000 L 325.800 345.000 325.697 298.400 C 325.602 255.504,325.646 250.800,326.144 250.800 C 326.237 250.800,327.514 252.285,328.982 254.100 M192.900 254.699 C 196.585 254.765,202.615 254.765,206.300 254.699 C 209.985 254.633,206.970 254.579,199.600 254.579 C 192.230 254.579,189.215 254.633,192.900 254.699 M61.800 294.000 C 61.664 294.220,61.229 294.400,60.833 294.400 C 55.835 294.400,46.601 304.668,46.162 310.713 L 46.025 312.600 46.582 310.441 C 48.712 302.198,55.195 296.079,63.800 294.190 L 66.200 293.664 64.124 293.632 C 62.982 293.614,61.936 293.780,61.800 294.000 M65.942 305.353 C 61.769 306.251,58.986 308.816,57.826 312.834 C 56.981 315.763,57.061 379.162,57.913 381.649 C 58.615 383.697,61.264 386.554,63.387 387.552 C 66.060 388.809,110.800 388.886,113.708 387.639 C 116.290 386.533,118.401 384.498,119.466 382.089 L 120.400 379.977 120.400 346.784 L 120.400 313.591 119.513 311.696 C 117.471 307.332,114.829 305.750,108.661 305.193 C 102.467 304.635,68.695 304.761,65.942 305.353 M79.251 319.365 C 82.695 320.808,84.462 325.053,83.033 328.451 C 80.042 335.564,69.600 333.631,69.600 325.964 C 69.600 320.702,74.479 317.366,79.251 319.365 M194.590 358.600 C 194.590 374.880,194.639 381.482,194.700 373.270 C 194.760 365.059,194.760 351.739,194.700 343.670 C 194.639 335.602,194.590 342.320,194.590 358.600 M239.463 340.697 C 239.360 340.864,251.499 340.953,266.438 340.895 L 293.600 340.789 293.600 350.952 C 293.600 359.850,293.521 361.145,292.967 361.357 C 291.663 361.858,240.189 361.629,239.680 361.120 C 239.359 360.799,239.200 360.785,239.200 361.077 C 239.200 361.318,239.485 361.624,239.833 361.757 C 241.179 362.274,292.611 362.027,293.331 361.500 C 293.950 361.047,294.004 360.035,293.907 350.800 L 293.800 340.600 266.725 340.497 C 251.834 340.441,239.566 340.531,239.463 340.697 M238.973 351.000 C 238.973 356.280,239.030 358.385,239.099 355.677 C 239.168 352.969,239.168 348.649,239.099 346.077 C 239.029 343.505,238.972 345.720,238.973 351.000 M103.473 347.700 C 107.105 350.170,106.703 355.366,102.720 357.438 C 100.803 358.436,75.403 358.242,73.722 357.218 C 70.107 355.014,69.889 350.085,73.301 347.700 C 74.576 346.809,74.727 346.800,88.370 346.800 C 102.002 346.800,102.165 346.810,103.473 347.700 M30.080 356.880 C 29.720 357.240,29.623 361.214,29.693 372.780 L 29.786 388.200 29.993 372.600 L 30.200 357.000 38.000 356.787 L 45.800 356.574 38.180 356.487 C 32.685 356.424,30.426 356.534,30.080 356.880 M325.062 356.700 C 324.893 356.972,341.544 356.968,361.600 356.690 C 365.890 356.631,359.466 356.541,347.324 356.491 C 335.182 356.441,325.164 356.535,325.062 356.700 M370.000 372.520 L 370.200 388.200 370.305 372.825 C 370.362 364.368,370.272 357.312,370.105 357.145 C 369.937 356.977,369.890 363.896,370.000 372.520 M46.178 369.200 C 46.178 375.910,46.232 378.655,46.299 375.300 C 46.366 371.945,46.366 366.455,46.299 363.100 C 46.232 359.745,46.178 362.490,46.178 369.200 M103.545 371.959 C 106.759 374.251,106.698 379.254,103.432 381.246 C 101.540 382.399,75.260 382.399,73.368 381.246 C 70.208 379.319,70.034 374.250,73.055 372.106 C 74.791 370.874,74.869 370.868,89.000 370.936 L 102.200 371.000 103.545 371.959 M30.538 388.894 C 31.148 389.282,47.899 389.288,48.138 388.900 C 48.240 388.735,44.217 388.600,39.199 388.600 C 34.181 388.600,30.283 388.732,30.538 388.894 M332.900 389.099 C 336.805 389.165,343.195 389.165,347.100 389.099 C 351.005 389.034,347.810 388.980,340.000 388.980 C 332.190 388.980,328.995 389.034,332.900 389.099 " stroke="none" fill="#325977" fill-rule="evenodd"/><path id="path3" d="M148.100 0.293 C 147.165 0.377,146.400 0.616,146.400 0.823 C 146.400 1.030,145.770 1.200,145.000 1.200 C 144.230 1.200,143.600 1.380,143.600 1.600 C 143.600 1.820,143.240 2.000,142.800 2.000 C 142.360 2.000,142.000 2.180,142.000 2.400 C 142.000 2.620,141.561 2.800,141.024 2.800 C 140.487 2.800,139.936 2.980,139.800 3.200 C 139.664 3.420,139.243 3.600,138.865 3.600 C 138.486 3.600,137.917 3.960,137.600 4.400 C 137.283 4.840,136.703 5.200,136.312 5.200 C 135.920 5.200,135.600 5.380,135.600 5.600 C 135.600 5.820,135.312 6.000,134.960 6.000 C 134.609 6.000,133.817 6.540,133.200 7.200 C 132.583 7.860,131.836 8.403,131.540 8.407 C 130.917 8.415,125.600 13.669,125.600 14.277 C 125.600 14.499,125.060 15.246,124.400 15.937 C 123.740 16.628,123.200 17.464,123.200 17.796 C 123.200 18.128,123.020 18.400,122.800 18.400 C 122.580 18.400,122.400 18.636,122.400 18.925 C 122.400 19.213,122.040 19.836,121.600 20.308 C 121.160 20.780,120.800 21.444,120.800 21.783 C 120.800 22.122,120.620 22.400,120.400 22.400 C 120.180 22.400,120.000 22.760,120.000 23.200 C 120.000 23.640,119.820 24.000,119.600 24.000 C 119.380 24.000,119.200 24.540,119.200 25.200 C 119.200 25.860,119.020 26.400,118.800 26.400 C 118.580 26.400,118.400 26.839,118.400 27.376 C 118.400 27.913,118.220 28.464,118.000 28.600 C 117.780 28.736,117.600 29.467,117.600 30.224 C 117.600 30.981,117.420 31.600,117.200 31.600 C 116.969 31.600,116.800 32.859,116.800 34.576 C 116.800 36.213,116.620 37.664,116.400 37.800 C 116.140 37.961,116.000 47.508,116.000 65.136 L 116.000 92.225 114.100 92.747 C 110.121 93.840,104.400 97.979,104.400 99.765 C 104.400 100.114,104.265 100.401,104.100 100.403 C 103.741 100.407,102.800 102.344,102.800 103.080 C 102.800 103.366,102.620 103.600,102.400 103.600 C 102.178 103.600,102.000 104.667,102.000 106.000 C 102.000 107.333,101.822 108.400,101.600 108.400 C 101.343 108.400,101.200 112.192,101.200 118.976 C 101.200 125.596,101.350 129.645,101.600 129.800 C 101.820 129.936,102.000 131.297,102.000 132.824 C 102.000 134.408,102.172 135.600,102.400 135.600 C 102.620 135.600,102.800 136.140,102.800 136.800 C 102.800 137.460,102.980 138.000,103.200 138.000 C 103.420 138.000,103.600 138.450,103.600 139.000 C 103.600 139.550,103.780 140.000,104.000 140.000 C 104.220 140.000,104.400 140.360,104.400 140.800 C 104.400 141.240,104.580 141.600,104.800 141.600 C 105.020 141.600,105.200 141.843,105.200 142.141 C 105.200 142.438,105.740 143.246,106.400 143.937 C 107.060 144.628,107.600 145.380,107.600 145.610 C 107.600 146.033,110.193 148.800,110.590 148.800 C 110.710 148.800,111.372 149.340,112.063 150.000 C 112.754 150.660,113.562 151.200,113.859 151.200 C 114.157 151.200,114.400 151.380,114.400 151.600 C 114.400 151.820,114.760 152.000,115.200 152.000 C 115.640 152.000,116.000 152.180,116.000 152.400 C 116.000 152.620,116.360 152.800,116.800 152.800 C 117.240 152.800,117.600 152.980,117.600 153.200 C 117.600 153.420,118.039 153.600,118.576 153.600 C 119.113 153.600,119.652 153.760,119.773 153.956 C 119.894 154.151,120.579 154.407,121.296 154.524 C 124.474 155.042,125.340 155.419,125.627 156.410 C 126.957 161.008,127.848 163.596,128.100 163.598 C 128.265 163.599,128.400 164.039,128.400 164.576 C 128.400 165.113,128.580 165.664,128.800 165.800 C 129.020 165.936,129.200 166.397,129.200 166.824 C 129.200 167.251,129.380 167.600,129.600 167.600 C 129.820 167.600,130.000 167.960,130.000 168.400 C 130.000 168.840,130.180 169.200,130.400 169.200 C 130.620 169.200,130.800 169.560,130.800 170.000 C 130.800 170.440,130.946 170.800,131.125 170.800 C 131.304 170.800,131.698 171.430,132.000 172.200 C 132.302 172.970,132.696 173.600,132.875 173.600 C 133.054 173.600,133.200 173.870,133.200 174.200 C 133.200 174.530,133.380 174.800,133.600 174.800 C 133.820 174.800,134.000 175.070,134.000 175.400 C 134.000 175.730,134.180 176.000,134.400 176.000 C 134.620 176.000,134.800 176.288,134.800 176.640 C 134.800 176.991,135.340 177.783,136.000 178.400 C 136.660 179.017,137.200 179.737,137.200 180.000 C 137.200 180.263,137.740 180.983,138.400 181.600 C 139.060 182.217,139.600 182.915,139.600 183.151 C 139.600 183.388,140.590 184.620,141.800 185.889 L 144.000 188.197 144.000 198.298 L 144.000 208.400 139.400 208.400 C 135.872 208.400,134.800 208.278,134.800 207.875 C 134.800 207.587,134.440 206.964,134.000 206.492 C 133.560 206.020,133.200 205.438,133.200 205.199 C 133.200 204.586,131.344 202.800,130.706 202.800 C 130.415 202.800,129.917 202.440,129.600 202.000 C 129.283 201.560,128.703 201.200,128.312 201.200 C 127.920 201.200,127.600 201.020,127.600 200.800 C 127.600 200.580,127.060 200.400,126.400 200.400 C 125.740 200.400,125.200 200.220,125.200 200.000 C 125.200 199.739,118.200 199.600,105.000 199.600 C 91.800 199.600,84.800 199.739,84.800 200.000 C 84.800 200.220,84.260 200.400,83.600 200.400 C 82.940 200.400,82.400 200.580,82.400 200.800 C 82.400 201.020,82.132 201.200,81.805 201.200 C 80.939 201.200,78.362 203.409,76.435 205.804 C 75.623 206.813,74.838 209.188,74.818 210.700 C 74.808 211.415,74.620 212.000,74.400 212.000 C 74.156 212.000,74.000 213.810,74.000 216.629 C 74.000 221.407,73.695 222.400,72.229 222.400 C 71.883 222.400,71.600 222.580,71.600 222.800 C 71.600 223.020,71.240 223.200,70.800 223.200 C 70.360 223.200,70.000 223.359,70.000 223.553 C 70.000 223.748,69.685 224.013,69.300 224.142 C 67.841 224.634,62.000 228.435,62.000 228.894 C 62.000 229.062,61.806 229.200,61.568 229.200 C 61.088 229.200,58.433 231.346,55.872 233.805 C 54.952 234.688,53.570 235.854,52.800 236.396 C 50.457 238.044,42.833 246.170,41.600 248.333 C 41.270 248.911,40.505 249.866,39.900 250.453 C 39.295 251.040,38.800 251.769,38.800 252.072 C 38.800 252.375,38.440 252.883,38.000 253.200 C 37.560 253.517,37.200 253.973,37.200 254.213 C 37.200 254.453,36.885 254.998,36.500 255.425 C 36.115 255.851,35.545 256.695,35.232 257.300 C 34.920 257.905,34.515 258.400,34.332 258.400 C 34.150 258.400,34.000 258.670,34.000 259.000 C 34.000 259.330,33.820 259.600,33.600 259.600 C 33.380 259.600,33.200 259.870,33.200 260.200 C 33.200 260.530,33.054 260.800,32.875 260.800 C 32.696 260.800,32.302 261.430,32.000 262.200 C 31.698 262.970,31.304 263.600,31.125 263.600 C 30.946 263.600,30.800 263.960,30.800 264.400 C 30.800 264.840,30.620 265.200,30.400 265.200 C 30.180 265.200,30.000 265.560,30.000 266.000 C 30.000 266.440,29.820 266.800,29.600 266.800 C 29.380 266.800,29.200 267.160,29.200 267.600 C 29.200 268.040,29.020 268.400,28.800 268.400 C 28.580 268.400,28.400 268.760,28.400 269.200 C 28.400 269.640,28.220 270.000,28.000 270.000 C 27.780 270.000,27.600 270.360,27.600 270.800 C 27.600 271.240,27.459 271.600,27.287 271.600 C 27.115 271.600,26.723 272.451,26.416 273.491 C 26.109 274.532,25.621 275.837,25.331 276.391 C 25.042 276.946,24.804 277.805,24.802 278.300 C 24.801 278.795,24.620 279.200,24.400 279.200 C 24.180 279.200,24.000 279.740,24.000 280.400 C 24.000 281.060,23.820 281.600,23.600 281.600 C 23.380 281.600,23.200 282.140,23.200 282.800 C 23.200 283.460,23.020 284.000,22.800 284.000 C 22.580 284.000,22.400 284.540,22.400 285.200 C 22.400 285.860,22.220 286.400,22.000 286.400 C 21.780 286.400,21.600 287.120,21.600 288.000 C 21.600 288.880,21.420 289.600,21.200 289.600 C 20.980 289.600,20.800 290.309,20.800 291.176 C 20.800 292.043,20.620 292.864,20.400 293.000 C 20.180 293.136,20.000 294.036,20.000 295.000 C 20.000 295.964,19.820 296.864,19.600 297.000 C 19.380 297.136,19.200 298.306,19.200 299.600 C 19.200 300.894,19.020 302.064,18.800 302.200 C 18.566 302.345,18.400 304.663,18.400 307.800 C 18.400 310.937,18.234 313.255,18.000 313.400 C 17.448 313.741,17.448 391.059,18.000 391.400 C 18.220 391.536,18.400 392.357,18.400 393.224 C 18.400 394.091,18.580 394.800,18.800 394.800 C 19.020 394.800,19.200 395.075,19.200 395.411 C 19.200 395.746,20.050 396.871,21.090 397.911 L 22.979 399.800 70.556 399.800 C 108.262 399.800,118.168 399.696,118.300 399.300 C 118.392 399.025,118.812 398.800,119.233 398.800 C 119.655 398.800,120.000 398.620,120.000 398.400 C 120.000 398.180,120.360 398.000,120.800 398.000 C 121.240 398.000,121.600 397.820,121.600 397.600 C 121.600 397.380,121.825 397.200,122.100 397.200 C 122.919 397.199,124.828 395.341,124.618 394.748 C 124.511 394.447,125.220 393.320,126.194 392.245 C 128.917 389.238,130.593 385.583,131.587 380.480 C 132.150 377.590,132.150 316.010,131.587 313.120 C 130.280 306.412,127.726 302.068,123.000 298.512 C 120.436 296.583,119.925 296.321,116.200 295.031 L 113.800 294.200 113.600 275.761 C 113.392 256.591,113.428 256.990,111.785 255.402 C 109.069 252.776,104.276 253.989,102.986 257.628 C 102.797 258.163,102.543 266.520,102.421 276.200 L 102.200 293.800 95.000 293.914 C 91.040 293.976,87.395 293.928,86.900 293.806 L 86.000 293.585 86.000 253.646 C 86.000 213.847,86.003 213.704,86.829 212.654 L 87.658 211.600 105.235 211.600 L 122.812 211.600 123.604 212.900 C 124.355 214.132,124.397 214.950,124.399 228.469 C 124.400 242.513,124.489 243.781,125.873 249.400 C 126.913 253.624,127.076 254.143,128.365 257.350 C 130.387 262.379,133.294 267.284,136.930 271.800 C 139.183 274.600,191.699 327.200,192.241 327.200 C 192.484 327.200,193.159 327.641,193.742 328.181 L 194.800 329.162 194.800 358.348 C 194.800 374.401,194.691 387.819,194.557 388.167 C 194.340 388.734,192.015 388.800,172.413 388.800 C 144.931 388.800,144.682 388.840,143.834 393.362 C 143.671 394.230,143.333 394.800,142.982 394.800 C 142.323 394.800,142.190 395.823,142.800 396.200 C 143.020 396.336,143.200 396.724,143.200 397.063 C 143.200 397.402,143.760 398.202,144.445 398.842 L 145.690 400.005 261.356 399.903 L 377.021 399.800 378.911 397.911 C 379.950 396.871,380.800 395.746,380.800 395.411 C 380.800 395.075,380.980 394.800,381.200 394.800 C 381.420 394.800,381.600 394.091,381.600 393.224 C 381.600 392.357,381.780 391.536,382.000 391.400 C 382.553 391.058,382.553 314.000,382.000 314.000 C 381.752 314.000,381.600 311.867,381.600 308.400 C 381.600 304.933,381.448 302.800,381.200 302.800 C 380.971 302.800,380.800 301.600,380.800 300.000 C 380.800 298.400,380.629 297.200,380.400 297.200 C 380.180 297.200,380.000 296.300,380.000 295.200 C 380.000 294.100,379.820 293.200,379.600 293.200 C 379.380 293.200,379.200 292.390,379.200 291.400 C 379.200 290.410,379.020 289.600,378.800 289.600 C 378.580 289.600,378.400 288.981,378.400 288.224 C 378.400 287.467,378.220 286.736,378.000 286.600 C 377.780 286.464,377.600 285.823,377.600 285.176 C 377.600 284.529,377.420 284.000,377.200 284.000 C 376.980 284.000,376.800 283.460,376.800 282.800 C 376.800 282.140,376.620 281.600,376.400 281.600 C 376.180 281.600,376.000 281.060,376.000 280.400 C 376.000 279.740,375.840 279.200,375.645 279.200 C 375.450 279.200,375.169 278.390,375.021 277.400 C 374.872 276.410,374.582 275.600,374.375 275.600 C 374.169 275.600,374.000 275.321,374.000 274.981 C 374.000 274.640,373.640 273.616,373.200 272.706 C 372.760 271.795,372.400 270.814,372.400 270.525 C 372.400 270.236,372.220 270.000,372.000 270.000 C 371.780 270.000,371.600 269.640,371.600 269.200 C 371.600 268.760,371.420 268.400,371.200 268.400 C 370.980 268.400,370.800 268.040,370.800 267.600 C 370.800 267.160,370.620 266.800,370.400 266.800 C 370.180 266.800,370.000 266.440,370.000 266.000 C 370.000 265.560,369.820 265.200,369.600 265.200 C 369.380 265.200,369.200 264.840,369.200 264.400 C 369.200 263.960,369.020 263.600,368.800 263.600 C 368.580 263.600,368.400 263.364,368.400 263.075 C 368.400 262.787,368.040 262.164,367.600 261.692 C 367.160 261.220,366.800 260.677,366.800 260.486 C 366.800 259.898,364.987 258.400,364.274 258.400 C 363.903 258.400,363.600 258.220,363.600 258.000 C 363.600 257.085,358.560 257.540,358.056 258.500 C 357.796 258.995,357.137 260.012,356.591 260.759 C 355.079 262.833,355.247 264.871,357.224 268.456 C 360.969 275.243,363.953 282.295,365.919 289.000 C 367.503 294.405,367.755 295.573,369.234 304.400 C 369.480 305.867,369.765 315.297,369.888 326.034 L 370.106 345.069 358.353 345.334 C 339.324 345.763,325.835 345.675,325.280 345.120 C 324.744 344.584,324.577 268.545,325.065 246.901 L 325.329 235.202 326.420 235.901 C 329.720 238.015,333.837 241.114,337.200 244.015 C 342.071 248.218,343.784 248.838,346.546 247.398 C 348.029 246.624,348.748 246.644,349.769 247.487 C 350.562 248.142,350.571 248.141,349.960 247.461 C 349.313 246.741,349.376 244.800,350.047 244.800 C 350.241 244.800,350.400 243.810,350.400 242.600 C 350.400 241.390,350.220 240.400,350.000 240.400 C 349.780 240.400,349.600 240.040,349.600 239.600 C 349.600 239.160,349.420 238.800,349.200 238.800 C 348.980 238.800,348.800 238.524,348.800 238.187 C 348.800 237.851,348.493 237.457,348.119 237.313 C 347.744 237.170,346.300 235.915,344.911 234.526 C 343.522 233.137,342.254 231.998,342.093 231.997 C 341.932 231.995,341.137 231.365,340.327 230.597 C 339.516 229.828,338.661 229.200,338.427 229.200 C 338.192 229.200,338.000 229.050,338.000 228.868 C 338.000 228.685,337.505 228.280,336.900 227.968 C 336.295 227.655,335.499 227.130,335.131 226.800 C 334.763 226.470,333.458 225.675,332.231 225.033 C 331.004 224.392,330.000 223.717,330.000 223.533 C 330.000 223.350,329.640 223.200,329.200 223.200 C 328.760 223.200,328.400 223.020,328.400 222.800 C 328.400 222.580,328.117 222.400,327.771 222.400 C 326.305 222.400,326.000 221.407,326.000 216.629 C 326.000 213.810,325.844 212.000,325.600 212.000 C 325.380 212.000,325.192 211.415,325.182 210.700 C 325.163 209.261,324.383 206.810,323.671 205.953 C 323.419 205.649,322.743 204.815,322.170 204.100 C 321.598 203.385,320.915 202.800,320.653 202.800 C 320.391 202.800,319.917 202.440,319.600 202.000 C 319.283 201.560,318.703 201.200,318.312 201.200 C 317.920 201.200,317.600 201.020,317.600 200.800 C 317.600 200.580,317.060 200.400,316.400 200.400 C 315.740 200.400,315.200 200.220,315.200 200.000 C 315.200 199.739,308.200 199.600,295.000 199.600 C 281.800 199.600,274.800 199.739,274.800 200.000 C 274.800 200.220,274.260 200.400,273.600 200.400 C 272.940 200.400,272.400 200.580,272.400 200.800 C 272.400 201.020,272.080 201.200,271.688 201.200 C 271.297 201.200,270.717 201.560,270.400 202.000 C 270.083 202.440,269.585 202.800,269.294 202.800 C 268.656 202.800,266.800 204.586,266.800 205.199 C 266.800 205.438,266.440 206.020,266.000 206.492 C 265.560 206.964,265.200 207.587,265.200 207.875 C 265.200 208.278,264.128 208.400,260.600 208.400 L 256.000 208.400 256.005 198.300 L 256.011 188.200 258.205 185.908 C 259.412 184.648,260.400 183.415,260.400 183.169 C 260.400 182.923,260.940 182.217,261.600 181.600 C 262.260 180.983,262.800 180.263,262.800 180.000 C 262.800 179.737,263.340 179.017,264.000 178.400 C 264.660 177.783,265.200 176.991,265.200 176.640 C 265.200 176.288,265.380 176.000,265.600 176.000 C 265.820 176.000,266.000 175.730,266.000 175.400 C 266.000 175.070,266.180 174.800,266.400 174.800 C 266.620 174.800,266.800 174.530,266.800 174.200 C 266.800 173.870,266.946 173.600,267.125 173.600 C 267.304 173.600,267.698 172.970,268.000 172.200 C 268.302 171.430,268.696 170.800,268.875 170.800 C 269.054 170.800,269.200 170.440,269.200 170.000 C 269.200 169.560,269.380 169.200,269.600 169.200 C 269.820 169.200,270.000 168.840,270.000 168.400 C 270.000 167.960,270.180 167.600,270.400 167.600 C 270.620 167.600,270.800 167.251,270.800 166.824 C 270.800 166.397,270.980 165.936,271.200 165.800 C 271.420 165.664,271.600 165.113,271.600 164.576 C 271.600 164.039,271.780 163.600,272.000 163.600 C 272.220 163.600,272.400 163.186,272.400 162.680 C 272.400 162.174,272.549 161.589,272.730 161.380 C 272.912 161.171,273.297 160.190,273.586 159.200 C 274.724 155.299,274.805 155.200,276.874 155.200 C 277.907 155.200,278.864 155.020,279.000 154.800 C 279.136 154.580,279.856 154.400,280.600 154.400 C 281.344 154.400,282.064 154.220,282.200 154.000 C 282.336 153.780,282.797 153.600,283.224 153.600 C 283.651 153.600,284.000 153.420,284.000 153.200 C 284.000 152.980,284.234 152.800,284.520 152.800 C 285.256 152.800,287.193 151.859,287.197 151.500 C 287.199 151.335,287.520 151.200,287.912 151.200 C 288.303 151.200,288.883 150.840,289.200 150.400 C 289.517 149.960,289.921 149.600,290.097 149.600 C 290.632 149.600,294.800 145.255,294.800 144.697 C 294.800 144.411,295.160 143.917,295.600 143.600 C 296.040 143.283,296.400 142.703,296.400 142.312 C 296.400 141.920,296.580 141.600,296.800 141.600 C 297.020 141.600,297.200 141.330,297.200 141.000 C 297.200 140.670,297.380 140.400,297.600 140.400 C 297.820 140.400,298.000 140.051,298.000 139.624 C 298.000 139.197,298.180 138.736,298.400 138.600 C 298.620 138.464,298.800 137.924,298.800 137.400 C 298.800 136.876,298.980 136.336,299.200 136.200 C 299.420 136.064,299.600 135.164,299.600 134.200 C 299.600 133.236,299.780 132.336,300.000 132.200 C 300.523 131.876,300.538 107.899,300.016 106.228 C 299.805 105.553,299.405 104.145,299.129 103.100 C 298.852 102.055,298.485 101.200,298.313 101.200 C 298.141 101.200,298.000 100.954,298.000 100.654 C 298.000 99.878,293.797 95.600,293.035 95.600 C 292.686 95.600,292.400 95.450,292.400 95.268 C 292.400 94.592,286.645 92.400,284.872 92.400 L 284.000 92.400 284.000 65.200 C 284.000 47.333,283.863 38.000,283.600 38.000 C 283.367 38.000,283.200 36.667,283.200 34.800 C 283.200 32.933,283.033 31.600,282.800 31.600 C 282.580 31.600,282.400 30.981,282.400 30.224 C 282.400 29.467,282.220 28.736,282.000 28.600 C 281.780 28.464,281.600 27.913,281.600 27.376 C 281.600 26.839,281.420 26.400,281.200 26.400 C 280.980 26.400,280.800 25.961,280.800 25.424 C 280.800 24.887,280.620 24.336,280.400 24.200 C 280.180 24.064,280.000 23.603,280.000 23.176 C 280.000 22.749,279.820 22.400,279.600 22.400 C 279.380 22.400,279.200 22.122,279.200 21.783 C 279.200 21.444,278.840 20.780,278.400 20.308 C 277.960 19.836,277.600 19.213,277.600 18.925 C 277.600 18.636,277.420 18.400,277.200 18.400 C 276.980 18.400,276.800 18.122,276.800 17.782 C 276.800 17.442,276.350 16.714,275.800 16.164 C 275.250 15.614,274.800 14.981,274.800 14.758 C 274.800 14.142,269.076 8.401,268.460 8.401 C 268.164 8.400,267.417 7.860,266.800 7.200 C 266.183 6.540,265.391 6.000,265.040 6.000 C 264.688 6.000,264.400 5.820,264.400 5.600 C 264.400 5.380,264.040 5.200,263.600 5.200 C 263.160 5.200,262.800 5.050,262.800 4.868 C 262.800 4.530,262.550 4.395,259.000 2.807 C 257.900 2.315,256.687 1.752,256.305 1.556 C 255.923 1.360,255.173 1.200,254.639 1.200 C 254.104 1.200,253.592 0.975,253.500 0.700 C 253.369 0.306,245.973 0.175,218.727 0.083 L 184.120 -0.033 182.860 1.144 C 182.093 1.861,181.600 2.714,181.600 3.327 C 181.600 3.881,181.375 4.428,181.100 4.543 C 180.742 4.694,180.799 4.879,181.300 5.197 C 181.685 5.440,182.013 6.036,182.029 6.520 C 182.075 7.891,183.325 9.711,184.830 10.595 C 186.162 11.378,187.053 11.406,217.000 11.608 L 247.800 11.816 250.600 12.747 C 260.748 16.124,268.007 23.813,270.662 34.000 C 271.283 36.382,271.919 54.673,271.447 56.555 L 271.185 57.600 247.192 57.600 C 233.997 57.600,223.200 57.524,223.200 57.431 C 223.200 57.338,223.914 55.939,224.786 54.322 C 229.557 45.475,229.995 37.552,226.114 30.270 C 217.566 14.232,184.145 13.488,174.647 29.123 C 170.094 36.618,170.160 44.286,174.856 53.511 C 175.925 55.610,176.800 57.389,176.800 57.464 C 176.800 57.539,165.910 57.600,152.600 57.600 L 128.400 57.600 128.413 48.700 C 128.438 31.541,131.154 24.206,139.923 17.618 C 145.565 13.378,149.168 12.119,157.000 11.647 C 163.202 11.274,164.326 10.822,165.558 8.200 C 166.594 5.996,167.124 2.800,166.454 2.800 C 166.204 2.800,166.000 2.506,166.000 2.147 C 166.000 0.145,158.440 -0.638,148.100 0.293 M204.869 29.232 C 219.118 32.121,221.305 40.759,211.317 54.693 C 207.165 60.485,200.935 67.600,200.015 67.600 C 199.460 67.600,197.972 66.041,192.192 59.400 C 178.831 44.050,179.607 32.445,194.200 29.397 C 197.275 28.754,202.144 28.679,204.869 29.232 M189.241 72.866 C 196.974 81.233,203.075 81.216,210.814 72.806 L 214.600 68.692 242.703 68.925 C 258.160 69.052,270.985 69.267,271.203 69.402 C 272.028 69.911,271.712 106.573,270.875 107.607 C 269.913 108.795,267.296 109.033,261.941 108.420 C 258.018 107.971,256.631 107.724,252.400 106.726 C 247.131 105.482,238.665 101.865,234.800 99.206 C 214.301 85.104,189.319 85.019,165.600 98.970 C 154.372 105.574,143.789 108.800,133.353 108.800 C 130.712 108.800,130.249 108.685,129.382 107.818 L 128.400 106.836 128.400 88.052 C 128.400 73.398,128.510 69.222,128.900 69.065 C 129.175 68.954,142.019 68.849,157.442 68.832 L 185.483 68.800 189.241 72.866 M211.907 101.035 C 216.562 102.179,221.621 104.182,225.016 106.226 C 226.270 106.982,227.382 107.600,227.487 107.600 C 227.591 107.600,228.185 107.962,228.807 108.405 C 230.447 109.573,235.096 112.054,238.400 113.524 C 245.769 116.805,256.927 119.600,262.651 119.600 C 265.099 119.600,265.200 119.960,265.200 128.716 C 265.200 145.174,263.641 153.644,258.783 163.587 C 254.267 172.828,250.052 177.571,229.755 196.254 C 229.070 196.884,226.767 199.004,224.639 200.964 C 218.659 206.469,212.714 210.400,210.368 210.400 C 209.972 210.400,209.548 210.560,209.427 210.756 C 208.598 212.098,191.402 212.098,190.573 210.756 C 190.452 210.560,190.028 210.400,189.632 210.400 C 188.627 210.400,182.933 207.426,181.000 205.893 C 179.142 204.418,177.084 202.568,171.169 197.053 C 169.723 195.704,166.393 192.625,163.769 190.212 C 155.352 182.467,148.250 175.107,146.196 172.000 C 145.106 170.350,144.120 168.910,144.007 168.800 C 143.893 168.690,143.607 168.240,143.371 167.800 C 143.135 167.360,142.556 166.280,142.084 165.400 C 139.644 160.849,138.093 156.733,136.505 150.600 C 135.256 145.780,134.559 120.168,135.667 119.844 C 135.960 119.759,138.180 119.475,140.600 119.214 C 145.326 118.704,150.748 117.483,155.754 115.803 C 158.552 114.864,159.858 114.325,164.800 112.077 C 165.570 111.726,168.702 109.951,171.759 108.132 C 185.390 100.024,198.414 97.721,211.907 101.035 M286.044 105.232 C 288.317 106.850,288.400 107.345,288.400 119.234 C 288.400 132.661,287.895 134.905,284.000 138.800 C 281.846 140.954,276.629 143.640,276.000 142.919 C 275.847 142.744,275.807 137.056,275.910 130.280 L 276.099 117.961 278.090 116.080 C 280.830 113.492,282.784 109.374,282.796 106.167 C 282.803 104.136,284.016 103.787,286.044 105.232 M117.514 107.414 C 118.212 111.098,119.416 113.408,122.086 116.187 L 124.400 118.597 124.400 130.498 C 124.400 143.963,124.587 143.314,121.225 141.519 C 114.637 138.002,113.200 133.926,113.200 118.749 C 113.200 108.173,113.426 106.728,115.283 105.427 C 116.724 104.418,116.990 104.655,117.514 107.414 M166.200 119.283 C 157.704 122.253,160.621 134.337,169.513 133.004 C 174.533 132.251,176.773 125.648,173.360 121.662 C 171.408 119.381,168.594 118.446,166.200 119.283 M229.704 119.464 C 222.423 122.041,224.209 133.140,231.913 133.191 C 240.118 133.246,241.525 121.895,233.640 119.255 C 231.986 118.701,231.834 118.710,229.704 119.464 M182.243 169.538 C 178.878 171.514,178.727 176.506,181.965 178.688 L 183.318 179.600 200.000 179.600 L 216.682 179.600 218.035 178.688 C 219.714 177.557,220.388 176.270,220.388 174.200 C 220.388 172.130,219.714 170.843,218.035 169.712 L 216.682 168.800 200.041 168.829 C 185.136 168.855,183.279 168.929,182.243 169.538 M158.299 199.900 C 158.951 200.505,161.428 202.800,163.804 205.000 C 166.180 207.200,168.951 209.769,169.962 210.710 C 186.974 226.532,212.595 227.060,228.852 211.923 C 230.157 210.709,232.557 208.481,238.013 203.422 C 244.535 197.375,243.986 196.753,243.993 210.200 C 244.001 227.658,243.096 232.074,237.911 239.885 C 230.211 251.484,221.674 254.800,199.517 254.800 C 179.248 254.800,170.838 251.769,163.382 241.778 C 162.734 240.910,162.093 240.110,161.957 240.000 C 161.821 239.890,161.001 238.450,160.134 236.800 C 156.739 230.332,156.000 225.541,156.000 209.990 C 156.000 197.931,156.031 197.793,158.299 199.900 M313.172 212.655 L 314.002 213.710 313.901 301.155 L 313.800 388.600 259.697 388.701 L 205.595 388.803 205.697 358.538 L 205.800 328.273 207.083 327.636 C 208.991 326.690,261.830 273.608,264.455 270.000 C 270.548 261.627,272.758 256.439,275.158 244.869 C 275.431 243.551,275.600 237.422,275.600 228.796 C 275.600 220.606,275.763 214.424,275.994 213.815 C 276.865 211.526,275.959 211.632,294.871 211.615 L 312.342 211.600 313.172 212.655 M145.202 222.500 C 145.216 241.376,160.224 260.064,178.800 264.337 C 179.790 264.564,181.445 264.942,182.477 265.175 C 185.002 265.747,214.998 265.747,217.523 265.175 C 224.538 263.588,224.732 263.525,229.800 261.186 C 244.047 254.609,254.796 238.147,254.799 222.900 L 254.800 220.400 259.800 220.400 L 264.800 220.400 264.800 229.823 C 264.800 246.556,262.276 255.243,254.725 264.501 C 251.884 267.985,202.449 317.522,201.100 318.237 C 200.139 318.747,199.861 318.747,198.900 318.242 C 197.206 317.350,146.421 266.173,144.083 263.000 C 137.444 253.995,135.219 245.694,135.207 229.900 L 135.200 220.400 140.200 220.400 L 145.200 220.400 145.202 222.500 M75.166 264.600 C 75.178 280.000,75.056 292.801,74.894 293.047 C 74.714 293.321,72.582 293.571,69.400 293.690 C 59.214 294.074,52.344 298.029,48.414 305.773 C 46.153 310.226,46.030 311.424,46.014 329.057 C 46.002 343.322,45.929 345.142,45.367 345.357 C 44.383 345.735,31.068 345.631,30.452 345.240 C 29.760 344.803,30.034 308.218,30.760 304.000 C 31.006 302.570,31.409 300.230,31.655 298.800 C 34.250 283.715,41.497 268.028,51.606 255.614 C 58.911 246.642,74.040 233.801,74.859 235.877 C 75.015 236.275,75.154 249.200,75.166 264.600 M108.661 305.193 C 114.829 305.750,117.471 307.332,119.513 311.696 L 120.400 313.591 120.400 346.784 L 120.400 379.977 119.466 382.089 C 118.401 384.498,116.290 386.533,113.708 387.639 C 110.800 388.886,66.060 388.809,63.387 387.552 C 61.264 386.554,58.615 383.697,57.913 381.649 C 57.061 379.162,56.981 315.763,57.826 312.834 C 58.986 308.816,61.769 306.251,65.942 305.353 C 68.695 304.761,102.467 304.635,108.661 305.193 M72.940 319.802 C 66.892 323.428,69.304 332.800,76.285 332.800 C 78.669 332.800,79.634 332.428,81.333 330.851 C 87.346 325.271,79.985 315.580,72.940 319.802 M236.400 329.984 C 229.183 331.562,228.400 333.605,228.400 350.865 C 228.400 367.387,228.843 368.967,234.178 371.451 L 236.200 372.392 266.600 372.392 L 297.000 372.392 299.028 371.448 C 304.224 369.029,304.801 366.986,304.798 351.027 C 304.795 335.384,304.340 333.690,299.400 330.921 L 297.400 329.800 267.600 329.739 C 251.210 329.705,237.170 329.815,236.400 329.984 M293.907 350.800 C 294.004 360.035,293.950 361.047,293.331 361.500 C 292.483 362.120,240.577 362.226,239.600 361.609 C 238.837 361.127,238.469 342.566,239.195 341.209 C 239.628 340.400,239.832 340.395,266.716 340.497 L 293.800 340.600 293.907 350.800 M73.301 347.700 C 69.889 350.085,70.107 355.014,73.722 357.218 C 75.403 358.242,100.803 358.436,102.720 357.438 C 106.703 355.366,107.105 350.170,103.473 347.700 C 102.165 346.810,102.002 346.800,88.370 346.800 C 74.727 346.800,74.576 346.809,73.301 347.700 M45.920 356.880 C 46.272 357.232,46.400 360.538,46.400 369.260 C 46.400 381.219,46.529 382.613,48.009 386.705 C 48.914 389.204,48.929 389.200,39.441 389.200 C 32.171 389.200,30.761 389.104,30.229 388.571 C 29.405 387.748,29.264 357.696,30.080 356.880 C 30.419 356.541,32.747 356.400,38.000 356.400 C 43.253 356.400,45.581 356.541,45.920 356.880 M369.626 356.814 C 370.442 357.251,370.868 387.043,370.077 388.289 C 369.626 388.999,326.978 389.538,325.693 388.850 L 324.800 388.372 324.800 372.653 C 324.800 364.007,324.920 356.813,325.067 356.667 C 325.524 356.209,368.764 356.352,369.626 356.814 M75.000 371.083 C 70.443 372.281,69.392 378.821,73.368 381.246 C 75.260 382.399,101.540 382.399,103.432 381.246 C 106.698 379.254,106.759 374.251,103.545 371.959 L 102.200 371.000 89.000 370.936 C 81.740 370.901,75.440 370.968,75.000 371.083 " stroke="none" fill="#040404" fill-rule="evenodd"/><path id="path4" d="M195.200 29.399 C 178.211 31.956,178.645 45.169,196.340 64.084 C 197.309 65.120,198.360 66.335,198.674 66.784 C 199.676 68.215,200.584 67.717,203.843 63.951 C 205.579 61.943,207.186 60.098,207.412 59.851 C 209.841 57.197,214.305 50.365,216.044 46.638 C 221.350 35.270,211.318 26.974,195.200 29.399 M207.219 30.330 C 207.759 30.543,208.997 30.955,209.972 31.246 C 216.099 33.077,218.492 40.307,215.191 47.016 C 213.961 49.517,210.250 55.494,209.613 56.000 C 209.475 56.110,208.925 56.830,208.392 57.600 C 207.859 58.370,206.859 59.630,206.169 60.400 C 205.480 61.170,203.955 62.880,202.781 64.200 C 199.784 67.569,200.287 67.673,195.994 62.801 C 194.348 60.931,192.730 59.129,192.400 58.795 C 192.070 58.462,191.620 57.901,191.400 57.549 C 191.180 57.198,189.899 55.308,188.554 53.351 C 180.285 41.318,181.545 33.405,192.200 30.449 C 195.357 29.573,205.103 29.496,207.219 30.330 M191.800 100.421 C 191.272 100.662,191.816 100.704,193.400 100.543 C 194.720 100.409,195.875 100.232,195.967 100.150 C 196.321 99.831,192.556 100.076,191.800 100.421 M204.033 100.150 C 204.125 100.232,205.280 100.409,206.600 100.543 C 208.184 100.704,208.728 100.662,208.200 100.421 C 207.444 100.076,203.679 99.831,204.033 100.150 M188.000 101.200 C 187.236 101.694,188.058 101.694,189.600 101.200 L 190.600 100.880 189.600 100.846 C 189.050 100.827,188.330 100.987,188.000 101.200 M210.400 101.200 C 211.942 101.694,212.764 101.694,212.000 101.200 C 211.670 100.987,210.950 100.827,210.400 100.846 L 209.400 100.880 210.400 101.200 M185.200 102.000 C 184.405 102.514,185.404 102.514,186.600 102.000 L 187.400 101.656 186.600 101.634 C 186.160 101.622,185.530 101.787,185.200 102.000 M214.945 102.450 C 216.235 102.886,217.370 103.164,217.467 103.066 C 217.699 102.834,214.038 101.592,213.229 101.629 C 212.883 101.644,213.655 102.014,214.945 102.450 M182.800 102.800 C 182.267 103.145,182.267 103.188,182.800 103.188 C 183.130 103.188,183.670 103.013,184.000 102.800 C 184.533 102.455,184.533 102.412,184.000 102.412 C 183.670 102.412,183.130 102.587,182.800 102.800 M177.461 105.046 C 176.394 105.601,175.598 106.131,175.690 106.224 C 175.873 106.406,180.000 104.434,180.000 104.164 C 180.000 103.836,179.361 104.057,177.461 105.046 M220.033 104.145 C 220.648 104.681,224.132 106.401,224.288 106.246 C 224.478 106.056,220.687 104.000,220.147 104.000 C 219.993 104.000,219.942 104.065,220.033 104.145 M115.106 105.968 L 113.800 107.135 113.800 119.668 C 113.800 129.405,113.918 132.378,114.330 133.000 L 114.860 133.800 114.553 133.000 C 113.811 131.067,113.922 108.680,114.681 107.201 C 115.607 105.399,116.681 105.146,116.911 106.676 C 117.051 107.609,117.090 107.545,117.140 106.300 C 117.212 104.494,116.825 104.431,115.106 105.968 M282.727 107.100 C 282.492 110.282,280.905 113.504,278.234 116.218 L 276.000 118.488 276.000 130.676 L 276.000 142.864 277.300 142.583 C 280.744 141.840,285.016 138.255,286.815 134.600 C 287.806 132.586,288.579 112.213,287.818 108.157 C 287.095 104.302,282.995 103.451,282.727 107.100 M286.599 106.421 C 287.366 107.189,287.400 107.749,287.400 119.712 L 287.400 132.200 286.329 134.400 C 284.531 138.092,279.972 141.999,277.462 142.000 L 276.600 142.001 276.717 130.158 L 276.835 118.314 278.756 116.443 C 281.300 113.965,283.200 110.011,283.200 107.193 L 283.200 105.100 284.499 105.360 C 285.213 105.503,286.158 105.980,286.599 106.421 M171.982 108.248 C 168.408 110.462,162.468 113.432,158.489 114.993 C 156.898 115.617,155.663 116.197,155.747 116.280 C 156.416 116.950,175.200 107.569,175.200 106.565 C 175.200 106.272,175.008 106.372,171.982 108.248 M224.800 106.551 C 224.800 107.799,245.317 117.628,246.853 117.116 C 247.060 117.047,245.738 116.481,243.915 115.858 C 240.048 114.537,232.734 111.085,229.123 108.876 C 225.988 106.959,224.800 106.320,224.800 106.551 M117.234 109.000 C 117.222 109.440,117.387 110.070,117.600 110.400 C 118.114 111.195,118.114 110.196,117.600 109.000 L 117.256 108.200 117.234 109.000 M118.000 111.522 C 118.000 112.248,120.365 115.492,121.830 116.775 L 123.400 118.150 123.600 129.975 C 123.710 136.479,123.756 141.874,123.702 141.964 C 123.139 142.912,117.826 138.650,116.045 135.822 C 115.360 134.734,114.800 134.023,114.800 134.243 C 114.800 136.382,121.916 142.895,123.629 142.324 C 123.937 142.221,124.053 138.591,124.018 130.221 L 123.967 118.265 121.867 116.233 C 120.713 115.115,119.451 113.525,119.065 112.700 C 118.393 111.265,118.000 110.830,118.000 111.522 M153.400 116.800 C 152.896 117.017,152.822 117.144,153.200 117.144 C 153.530 117.144,154.160 116.989,154.600 116.800 C 155.104 116.583,155.178 116.456,154.800 116.456 C 154.470 116.456,153.840 116.611,153.400 116.800 M150.600 117.600 C 150.096 117.817,150.022 117.944,150.400 117.944 C 150.730 117.944,151.360 117.789,151.800 117.600 C 152.304 117.383,152.378 117.256,152.000 117.256 C 151.670 117.256,151.040 117.411,150.600 117.600 M248.696 117.760 C 250.652 118.663,259.856 120.358,262.956 120.386 L 264.512 120.400 264.335 133.100 C 264.238 140.085,264.290 144.990,264.450 144.000 C 264.918 141.105,264.864 120.487,264.387 120.192 C 264.160 120.052,262.315 119.773,260.287 119.572 C 258.259 119.371,254.980 118.836,253.000 118.384 C 247.363 117.096,247.207 117.073,248.696 117.760 M147.400 118.400 L 146.600 118.744 147.400 118.744 C 147.840 118.744,148.560 118.589,149.000 118.400 L 149.800 118.056 149.000 118.056 C 148.560 118.056,147.840 118.211,147.400 118.400 M142.600 119.200 L 141.400 119.505 142.800 119.525 C 143.570 119.535,144.560 119.389,145.000 119.200 C 146.064 118.743,144.397 118.743,142.600 119.200 M163.893 119.814 C 163.072 120.372,162.400 120.934,162.400 121.063 C 162.400 121.192,162.651 121.089,162.959 120.834 C 163.266 120.579,164.211 120.025,165.059 119.601 C 165.906 119.178,166.327 118.825,165.993 118.816 C 165.659 118.807,164.714 119.256,163.893 119.814 M171.200 119.576 C 172.821 120.433,173.693 121.320,174.570 123.001 C 174.914 123.660,175.196 123.947,175.198 123.638 C 175.203 122.305,171.532 118.765,170.200 118.819 C 169.980 118.828,170.430 119.169,171.200 119.576 M228.146 119.567 C 226.741 120.424,224.800 122.782,224.800 123.632 C 224.800 123.937,225.130 123.560,225.534 122.794 C 225.937 122.027,227.128 120.815,228.179 120.100 C 230.236 118.701,230.212 118.308,228.146 119.567 M234.941 119.601 C 237.066 120.662,237.420 121.005,238.370 122.924 C 238.826 123.846,239.200 124.279,239.200 123.886 C 239.200 122.294,235.621 118.777,234.040 118.816 C 233.688 118.825,234.094 119.178,234.941 119.601 M136.100 120.012 L 135.200 120.374 135.230 131.287 C 135.246 137.289,135.382 143.010,135.532 144.000 C 135.683 144.990,135.739 140.109,135.658 133.152 L 135.511 120.505 138.255 120.107 C 140.935 119.718,140.953 119.708,139.000 119.680 C 137.900 119.664,136.595 119.813,136.100 120.012 M175.212 125.650 C 175.181 129.419,173.271 132.247,170.152 133.141 C 168.738 133.547,168.719 133.569,169.934 133.396 C 173.330 132.913,177.072 127.379,175.653 124.938 C 175.290 124.314,175.222 124.423,175.212 125.650 M224.363 125.200 C 223.728 128.651,226.696 132.917,230.066 133.396 L 231.400 133.586 229.976 133.171 C 227.105 132.335,225.226 129.900,224.819 126.488 C 224.639 124.972,224.485 124.537,224.363 125.200 M239.301 126.200 C 239.305 127.080,239.387 127.393,239.483 126.895 C 239.579 126.398,239.575 125.678,239.475 125.295 C 239.375 124.913,239.296 125.320,239.301 126.200 M160.809 128.106 C 160.786 129.967,164.661 133.638,166.580 133.572 C 167.097 133.554,166.815 133.329,165.818 132.964 C 163.788 132.221,162.482 131.006,161.556 129.000 C 161.150 128.120,160.814 127.718,160.809 128.106 M236.385 131.787 C 236.062 132.109,235.079 132.637,234.199 132.958 C 233.320 133.280,232.922 133.556,233.316 133.572 C 234.135 133.604,237.021 132.214,237.396 131.606 C 237.777 130.991,237.051 131.121,236.385 131.787 M263.448 147.400 C 263.292 148.280,262.971 149.654,262.733 150.454 C 262.496 151.253,262.384 152.153,262.484 152.452 C 262.734 153.201,264.112 147.442,263.901 146.531 C 263.800 146.095,263.617 146.444,263.448 147.400 M136.056 147.200 C 136.056 147.750,136.211 148.560,136.400 149.000 C 136.713 149.729,136.744 149.712,136.744 148.800 C 136.744 148.250,136.589 147.440,136.400 147.000 C 136.087 146.271,136.056 146.288,136.056 147.200 M136.812 151.000 C 136.812 151.440,136.987 152.070,137.200 152.400 C 137.521 152.897,137.588 152.862,137.588 152.200 C 137.588 151.760,137.413 151.130,137.200 150.800 C 136.879 150.303,136.812 150.338,136.812 151.000 M261.825 154.200 C 261.675 154.860,261.383 155.713,261.176 156.095 C 260.969 156.477,260.800 156.974,260.800 157.199 C 260.800 158.616,256.146 167.539,253.404 171.379 C 249.965 176.195,247.862 178.488,240.591 185.351 C 234.952 190.674,232.292 193.146,222.418 202.244 C 218.307 206.032,211.943 209.982,209.911 210.006 C 209.630 210.009,209.130 210.195,208.800 210.418 C 207.722 211.148,210.434 210.363,213.075 209.181 C 217.321 207.280,218.479 206.386,227.777 197.821 C 248.921 178.345,251.691 175.483,255.572 169.095 C 258.880 163.650,262.728 154.713,262.285 153.506 C 262.182 153.228,261.976 153.540,261.825 154.200 M137.612 154.000 C 137.612 154.330,137.787 154.870,138.000 155.200 C 138.345 155.733,138.388 155.733,138.388 155.200 C 138.388 154.870,138.213 154.330,138.000 154.000 C 137.655 153.467,137.612 153.467,137.612 154.000 M138.412 156.400 C 138.412 156.730,138.587 157.270,138.800 157.600 C 139.145 158.133,139.188 158.133,139.188 157.600 C 139.188 157.270,139.013 156.730,138.800 156.400 C 138.455 155.867,138.412 155.867,138.412 156.400 M139.409 159.250 C 139.850 160.675,141.560 163.872,141.581 163.312 C 141.592 163.044,141.240 162.183,140.800 161.400 C 140.360 160.617,140.000 159.722,140.000 159.411 C 140.000 159.101,139.801 158.724,139.557 158.574 C 139.253 158.386,139.206 158.597,139.409 159.250 M143.025 166.600 C 145.494 171.203,151.387 178.814,154.490 181.407 C 155.210 182.009,157.870 184.426,160.400 186.778 C 167.084 192.992,177.147 202.302,179.000 203.985 C 181.252 206.031,183.777 207.684,186.800 209.091 C 189.465 210.332,192.364 211.206,191.200 210.418 C 190.870 210.195,190.370 210.009,190.089 210.006 C 186.985 209.969,179.305 204.260,169.364 194.601 C 168.683 193.941,166.163 191.608,163.764 189.418 C 152.786 179.400,143.264 168.610,143.191 166.107 C 143.186 165.938,142.809 165.350,142.352 164.800 C 141.896 164.250,142.198 165.060,143.025 166.600 M191.500 168.700 C 196.175 168.764,203.825 168.764,208.500 168.700 C 213.175 168.636,209.350 168.583,200.000 168.583 C 190.650 168.583,186.825 168.636,191.500 168.700 M181.508 169.228 C 179.639 170.317,178.217 174.546,179.230 176.000 C 179.541 176.446,179.583 176.267,179.393 175.301 C 179.032 173.469,179.816 171.444,181.438 170.020 C 182.814 168.812,182.846 168.448,181.508 169.228 M217.800 169.280 C 218.240 169.531,219.005 170.201,219.500 170.768 C 219.994 171.336,220.399 171.591,220.400 171.336 C 220.400 170.764,218.115 168.795,217.469 168.812 C 217.211 168.819,217.360 169.029,217.800 169.280 M220.673 173.465 C 220.950 175.534,219.913 177.821,218.232 178.846 C 216.277 180.038,183.663 180.001,181.700 178.804 C 180.985 178.368,180.400 178.102,180.400 178.212 C 180.400 179.800,182.565 179.997,200.041 179.999 L 217.082 180.000 218.441 179.092 C 220.658 177.611,221.901 174.127,220.821 172.421 C 220.581 172.042,220.530 172.402,220.673 173.465 M156.423 211.680 C 156.436 218.786,156.583 225.320,156.751 226.200 C 156.919 227.080,156.973 221.662,156.871 214.159 C 156.760 205.991,156.835 200.426,157.057 200.289 C 157.480 200.027,158.144 200.582,164.438 206.460 C 171.485 213.040,171.710 213.243,173.200 214.355 C 173.969 214.930,174.907 215.676,175.283 216.014 C 177.155 217.696,186.746 222.052,188.398 221.970 C 188.729 221.954,187.830 221.529,186.400 221.025 C 182.111 219.515,177.912 217.305,174.553 214.787 C 172.557 213.292,170.811 211.730,161.853 203.429 C 159.462 201.213,157.257 199.256,156.953 199.080 C 156.487 198.811,156.404 200.794,156.423 211.680 M237.793 203.804 C 234.709 206.662,230.929 210.147,229.393 211.550 C 224.716 215.820,219.931 218.740,214.284 220.773 C 212.478 221.423,211.271 221.965,211.602 221.977 C 213.306 222.042,222.889 217.694,224.642 216.061 C 225.064 215.668,225.698 215.178,226.051 214.973 C 227.848 213.927,232.089 210.196,239.600 203.054 L 242.600 200.201 242.705 213.775 C 242.774 222.554,242.668 227.492,242.405 227.755 C 242.182 227.978,242.000 228.666,242.000 229.285 C 242.000 229.904,241.820 230.768,241.600 231.205 C 241.380 231.642,241.020 232.358,240.800 232.795 C 240.580 233.232,240.400 233.862,240.400 234.195 C 240.400 234.528,240.220 234.800,240.000 234.800 C 239.780 234.800,239.600 235.083,239.600 235.428 C 239.600 235.773,239.060 236.841,238.400 237.800 C 237.740 238.759,237.200 239.645,237.200 239.769 C 237.200 241.420,228.426 248.830,224.200 250.749 C 223.540 251.048,222.687 251.452,222.305 251.647 C 221.923 251.841,221.259 252.000,220.829 252.000 C 220.399 252.000,219.936 252.180,219.800 252.400 C 219.664 252.620,218.969 252.800,218.256 252.800 C 217.543 252.800,216.735 253.025,216.460 253.300 C 215.704 254.057,185.372 254.012,182.600 253.250 C 173.238 250.678,167.486 246.720,162.383 239.338 C 161.293 237.760,160.400 236.184,160.400 235.835 C 160.400 235.486,160.220 235.200,160.000 235.200 C 159.780 235.200,159.600 234.870,159.600 234.467 C 159.600 234.063,159.477 233.610,159.326 233.459 C 158.887 233.020,158.013 230.281,158.006 229.324 C 158.003 228.842,157.820 228.336,157.600 228.200 C 156.639 227.606,157.997 232.036,160.082 236.295 C 163.716 243.720,171.636 250.543,179.200 252.764 C 180.190 253.055,181.540 253.497,182.200 253.746 C 184.070 254.453,215.635 254.371,218.000 253.654 C 221.579 252.567,222.250 252.304,225.400 250.756 C 233.482 246.782,239.378 239.661,242.421 230.200 C 243.295 227.482,244.020 208.143,243.530 200.604 L 243.400 198.607 237.793 203.804 M192.800 211.200 C 193.350 211.376,194.250 211.520,194.800 211.520 L 195.800 211.520 194.800 211.200 C 194.250 211.024,193.350 210.880,192.800 210.880 L 191.800 210.880 192.800 211.200 M205.200 211.200 L 204.200 211.520 205.200 211.520 C 205.750 211.520,206.650 211.376,207.200 211.200 L 208.200 210.880 207.200 210.880 C 206.650 210.880,205.750 211.024,205.200 211.200 M86.829 212.654 C 85.895 213.842,85.472 293.600,86.400 293.600 C 86.664 293.600,86.800 279.954,86.800 253.462 C 86.800 215.085,86.832 213.295,87.531 212.662 C 88.647 211.652,122.012 211.651,122.851 212.661 C 123.285 213.184,123.451 216.542,123.646 228.761 C 123.880 243.473,124.025 245.358,125.235 249.428 C 125.436 250.104,125.600 251.038,125.600 251.505 C 125.600 251.971,125.780 252.464,126.000 252.600 C 126.220 252.736,126.400 253.199,126.400 253.629 C 126.400 254.059,126.559 254.723,126.753 255.105 C 126.948 255.487,127.280 256.250,127.492 256.800 C 128.675 259.871,132.102 266.209,134.185 269.182 C 136.923 273.088,191.741 328.400,192.874 328.400 C 193.978 328.400,194.000 329.007,194.000 358.833 L 194.000 388.000 171.746 388.000 C 155.475 388.000,149.058 388.130,147.875 388.485 C 146.034 389.036,143.807 391.062,143.506 392.459 C 143.394 392.976,143.170 393.715,143.009 394.100 C 142.843 394.495,142.888 394.800,143.113 394.800 C 143.332 394.800,143.626 394.188,143.766 393.441 C 144.052 391.917,145.224 390.246,146.531 389.497 C 147.185 389.123,153.186 388.951,170.800 388.800 L 194.200 388.600 194.303 358.721 L 194.405 328.842 192.703 327.651 C 190.299 325.970,137.699 273.112,135.532 270.200 C 130.062 262.849,126.930 255.570,124.775 245.200 C 124.507 243.910,124.229 236.821,124.103 228.064 C 123.896 213.667,123.859 213.100,123.069 212.364 C 122.288 211.637,121.421 211.600,104.954 211.600 L 87.658 211.600 86.829 212.654 M197.900 211.895 C 199.055 211.976,200.945 211.976,202.100 211.895 C 203.255 211.814,202.310 211.748,200.000 211.748 C 197.690 211.748,196.745 211.814,197.900 211.895 M277.000 212.229 C 276.233 212.808,276.190 213.457,275.948 227.917 C 275.585 249.605,273.305 258.357,265.139 269.400 C 262.796 272.570,209.921 325.819,207.297 327.652 L 205.595 328.842 205.697 358.721 L 205.800 388.600 259.800 388.600 L 313.800 388.600 313.901 301.155 L 314.002 213.710 313.172 212.655 L 312.342 211.600 295.071 211.613 C 280.302 211.624,277.684 211.713,277.000 212.229 M312.469 212.662 C 313.173 213.299,313.200 216.558,313.200 300.662 L 313.200 388.000 259.600 388.000 L 206.000 388.000 206.006 358.700 C 206.009 342.585,206.144 329.220,206.306 328.999 C 206.468 328.779,207.072 328.356,207.649 328.059 C 209.153 327.285,262.707 273.477,264.837 270.600 C 268.259 265.976,272.800 257.562,272.800 255.843 C 272.800 255.515,272.980 255.136,273.200 255.000 C 273.420 254.864,273.600 254.324,273.600 253.800 C 273.600 253.276,273.780 252.736,274.000 252.600 C 274.220 252.464,274.400 251.971,274.400 251.505 C 274.400 251.038,274.564 250.104,274.765 249.428 C 275.962 245.403,276.113 243.434,276.350 228.761 C 276.548 216.548,276.715 213.185,277.149 212.661 C 277.987 211.651,311.352 211.652,312.469 212.662 M189.600 222.400 C 189.930 222.613,190.740 222.773,191.400 222.754 C 192.576 222.721,192.580 222.714,191.600 222.400 C 190.070 221.910,188.842 221.910,189.600 222.400 M208.400 222.400 C 207.420 222.714,207.424 222.721,208.600 222.754 C 209.260 222.773,210.070 222.613,210.400 222.400 C 211.158 221.910,209.930 221.910,208.400 222.400 M194.138 223.294 C 194.715 223.661,205.153 223.642,206.085 223.272 C 206.462 223.122,203.824 223.000,200.224 223.000 C 196.623 223.000,193.885 223.132,194.138 223.294 M106.910 253.615 C 102.090 254.659,102.000 255.070,102.000 275.975 L 102.000 293.582 94.600 293.705 L 87.199 293.827 94.700 293.814 L 102.200 293.800 102.400 276.000 C 102.540 263.513,102.742 257.883,103.075 257.139 C 104.356 254.279,108.703 253.022,111.189 254.792 C 113.585 256.498,113.599 256.624,113.606 275.860 C 113.613 295.446,113.402 294.028,116.457 294.980 C 124.141 297.372,129.671 303.651,131.447 312.000 C 132.263 315.837,132.259 377.797,131.442 381.600 C 130.418 386.367,128.827 389.542,125.897 392.665 C 125.244 393.361,124.775 394.114,124.855 394.339 C 125.027 394.823,128.540 390.417,129.776 388.169 C 130.614 386.643,131.156 385.085,131.989 381.800 C 132.682 379.072,132.508 313.970,131.800 311.005 C 129.942 303.223,123.994 296.873,116.157 294.307 L 114.600 293.797 114.400 275.998 C 114.260 263.562,114.058 257.882,113.727 257.145 C 113.045 255.623,111.342 254.045,110.086 253.771 C 109.489 253.640,108.820 253.489,108.600 253.435 C 108.380 253.380,107.620 253.462,106.910 253.615 M235.294 329.587 C 232.461 330.269,229.610 332.908,228.364 336.000 C 227.248 338.770,227.567 364.602,228.745 366.893 C 229.836 369.014,231.556 370.770,233.712 371.963 C 236.092 373.280,297.110 373.279,299.488 371.962 C 304.960 368.931,305.560 366.882,305.578 351.200 C 305.594 335.833,305.005 333.569,300.219 330.609 L 298.263 329.400 267.432 329.336 C 250.474 329.301,236.012 329.414,235.294 329.587 M299.065 330.796 C 304.324 333.424,304.795 335.084,304.798 351.027 C 304.801 367.099,304.258 369.012,299.003 371.459 L 297.000 372.392 266.406 372.396 L 235.811 372.400 233.702 371.333 C 231.493 370.215,229.955 368.548,228.980 366.213 C 228.113 364.139,228.130 337.944,228.999 335.864 C 230.144 333.123,232.677 330.862,235.597 329.974 C 236.149 329.806,250.116 329.653,266.636 329.634 L 296.672 329.600 299.065 330.796 M239.467 341.067 C 238.958 341.576,239.160 360.600,239.680 361.120 C 240.591 362.031,293.600 361.773,293.600 360.857 C 293.600 360.716,281.441 360.647,266.580 360.706 L 239.561 360.811 239.680 350.805 C 239.746 345.302,239.785 340.799,239.767 340.800 C 239.748 340.800,239.613 340.920,239.467 341.067 M30.267 357.067 C 29.617 357.716,29.973 388.304,30.633 388.557 C 31.724 388.976,47.932 388.834,48.198 388.403 C 48.333 388.185,48.249 387.690,48.012 387.303 C 47.616 386.658,47.589 386.666,47.690 387.400 C 47.797 388.179,47.570 388.200,39.200 388.200 L 30.600 388.200 30.495 372.700 L 30.391 357.200 37.989 357.200 L 45.587 357.200 45.700 367.900 L 45.814 378.600 45.907 367.700 L 46.000 356.800 38.267 356.800 C 34.013 356.800,30.413 356.920,30.267 357.067 M325.070 357.063 C 324.735 357.399,324.708 387.296,325.043 388.167 C 325.310 388.863,368.423 389.154,369.505 388.467 C 369.900 388.216,369.987 384.767,369.905 372.573 L 369.800 357.000 347.570 356.897 C 335.343 356.840,325.218 356.915,325.070 357.063 M369.200 372.536 L 369.200 387.871 357.735 388.136 C 343.387 388.466,326.668 388.478,325.833 388.157 C 325.271 387.942,325.200 386.192,325.200 372.557 L 325.200 357.200 347.200 357.200 L 369.200 357.200 369.200 372.536 M46.046 382.000 C 46.027 382.550,46.187 383.270,46.400 383.600 C 46.894 384.364,46.894 383.542,46.400 382.000 L 46.080 381.000 46.046 382.000 " stroke="none" fill="#8e8548" fill-rule="evenodd"/></g></svg>
