<?xml version="1.0" encoding="UTF-8"?>
<svg width="88px" height="108px" viewBox="0 0 88 108" version="1.1" xmlns="http://www.w3.org/2000/svg" xmlns:xlink="http://www.w3.org/1999/xlink">
    <!-- Generator: Sketch 59.1 (86144) - https://sketch.com -->
    <title>email</title>
    <desc>Created with Sketch.</desc>
    <g id="Web-Design-Copy" stroke="none" stroke-width="1" fill="none" fill-rule="evenodd">
        <g id="404-page-copy" transform="translate(-1057.000000, -538.000000)" fill-rule="nonzero">
            <g id="email" transform="translate(1034.000000, 532.000000)">
                <g id="Group" transform="translate(23.000000, 6.000000)">
                    <g id="Path">
                        <path d="M34.2166391,4.92026087 L0.228852071,47.8716522 L44,92.8609565 L87.7711479,47.8716522 L53.7833609,4.92026087 C48.7848047,-1.39669565 39.2151953,-1.39669565 34.2166391,4.92026087 Z" fill="#0768DD"></path>
                        <path d="M87.7708876,47.8721739 L76.9947929,58.9486957 L44,92.8617391 L44,0.182608696 C47.6423669,0.182608696 51.2847337,1.76347826 53.784142,4.92 L59.1448521,11.6947826 L76.9947929,34.2521739 L87.7708876,47.8721739 Z" fill="#0059B2"></path>
                        <polygon fill="#FFFFFF" points="10.2244024 12.366 76.2137278 12.366 76.2137278 94.5746087 10.2244024 94.5746087"></polygon>
                        <polygon fill="#EAE1DC" points="44.0013018 12.366 76.2134675 12.366 76.2134675 94.5764348 44.0013018 94.5764348"></polygon>
                        <path d="M44,85.119913 L0.228852071,47.8716522 L0.228852071,96.1077391 C0.228852071,102.648 5.52030769,107.949913 12.0476686,107.949913 L75.9523314,107.949913 C82.4796923,107.949913 87.7711479,102.648 87.7711479,96.1077391 L87.7711479,47.8716522 L44,85.119913 Z" fill="#007DFF"></path>
                        <path d="M87.7708876,47.8721739 L87.7708876,96.1069565 C87.7708876,102.646957 82.4804734,107.950435 75.9533728,107.950435 L44,107.950435 L44,85.1191304 L76.9947929,57.0417391 L87.7708876,47.8721739 Z" fill="#0768DD"></path>
                    </g>
                    <path d="M57.1906272,48.7917391 C56.9742722,49.3353913 56.4270059,50.4722609 55.2283314,51.1912174 C54.8208757,51.4356522 54.139787,51.7030435 53.2761893,51.7030435 C52.811716,51.7030435 52.4521657,51.4111304 52.2792899,51.2368696 C51.8655858,50.8202609 51.6203314,50.2061739 51.6231953,49.5941739 L51.6471479,44.7281739 C51.6507929,44.5987826 51.6549586,44.4696522 51.6549586,44.3392174 C51.6549586,44.2573043 51.6518343,44.1766957 51.6502722,44.0955652 L51.7041657,33.1831304 L47.7988402,33.1638261 L47.7860828,35.7532174 C46.5246627,34.851913 45.0146036,34.3458261 43.3452071,34.3458261 C39.0024852,34.3458261 34.5108402,38.1026087 34.5108402,44.3898261 C34.5108402,50.1213913 38.3955976,54.7841739 43.1705089,54.7841739 C45.1866982,54.7841739 47.016213,53.958 48.4570178,52.5626087 C48.7366391,53.0885217 49.0902012,53.574 49.5109349,53.9973913 C50.547929,55.0413913 51.8851124,55.6163478 53.2761893,55.6163478 C57.2635266,55.6163478 59.7874083,52.838087 60.8194556,50.238 C62.4076213,46.238087 62.6927101,42.8653043 61.7434556,39.3028696 C61.7379882,39.2827826 61.7322604,39.2624348 61.7262722,39.2423478 C60.2911953,34.478087 57.0807574,30.5773043 52.6859645,28.2584348 C48.2919527,25.9398261 43.2639763,25.4942609 38.527858,27.0052174 C34.039858,28.4363478 30.3063669,31.5224348 28.0147219,35.6942609 C25.7222959,39.8673913 25.119574,44.6786087 26.3172071,49.242 C28.384426,57.1173913 35.4923787,62.7748696 43.6026982,62.9994783 L45.5545799,63.0534783 L45.6623669,59.142 L43.7104852,59.088 C37.3224142,58.9108696 31.7232189,54.4528696 30.0939172,48.2467826 C29.1524734,44.6585217 29.6289231,40.8706957 31.435787,37.5808696 C33.2426509,34.2915652 36.1820592,31.8597391 39.712213,30.7338261 C43.4433609,29.544 47.4049231,29.894087 50.8658225,31.7204348 C53.2186509,32.9621739 54.6586746,34.5446087 55.2986272,35.3217391 C56.8841893,37.2474783 57.6233373,39.1648696 57.9755976,40.3343478 C58.2520947,41.2077391 58.5994083,42.6858261 58.4497041,44.5218261 C58.2893254,46.4856522 57.6329704,47.9658261 57.1906272,48.7917391 Z M43.1707692,50.8713913 C40.8843314,50.8713913 38.416426,48.3933913 38.416426,44.390087 C38.416426,40.5524348 40.9226036,38.2591304 43.3454675,38.2591304 C45.8992899,38.2591304 47.6907929,40.6862609 47.7446864,44.1793043 L47.7420828,44.708087 C47.6077396,48.1387826 45.6092544,50.8713913 43.1707692,50.8713913 L43.1707692,50.8713913 Z" id="Shape" fill="#FF807D"></path>
                    <path d="M57.1921893,48.7930435 C56.9753136,49.3374783 56.4272663,50.4743478 55.2278107,51.1933043 C54.8198343,51.4377391 54.1395266,51.7043478 53.2764497,51.7043478 C52.8130178,51.7043478 52.4511243,51.4121739 52.2792899,51.2373913 C51.8653254,50.82 51.6205917,50.2069565 51.6231953,49.593913 L51.7039053,33.1826087 L47.7985799,33.1643478 L47.7855621,35.7547826 C46.692071,34.9721739 45.4085207,34.4869565 44,34.3721739 L44,38.313913 C46.2,38.6921739 47.6970414,40.9904348 47.7439053,44.1782609 L47.7413018,44.7078261 C47.624142,47.7391304 46.0489941,50.2278261 44,50.7626087 L44,54.7356522 C45.6871006,54.5452174 47.2179882,53.7652174 48.4572781,52.5626087 C48.735858,53.0895652 49.0899408,53.5747826 49.511716,53.9973913 C50.547929,55.0408696 51.8861538,55.6173913 53.2764497,55.6173913 C57.2650888,55.6173913 59.787929,52.8391304 60.8189349,50.2382609 C62.4071006,46.2391304 62.6934911,42.866087 61.7431953,39.3026087 C61.7379882,39.2817391 61.7327811,39.2634783 61.7249704,39.2426087 C60.2904142,34.4791304 57.0802367,30.5765217 52.6854438,28.2573913 C49.9621302,26.82 46.9914793,26.1026087 44,26.126087 L44,30.0391304 C46.3666272,30.0182609 48.712426,30.5843478 50.8655621,31.7191304 C53.2449467,32.9731304 54.7011124,34.5866087 55.3509586,35.3848696 C56.9005917,37.2889565 57.6272426,39.1763478 57.975858,40.3330435 C58.236213,41.3110435 58.5293728,42.8937391 58.3195266,44.826 C58.1310296,46.5623478 57.6082367,47.9212174 57.1921893,48.7930435 L57.1921893,48.7930435 Z M44,63.0104348 L45.5543195,63.0521739 L45.6636686,59.1417391 L44,59.0947826 L44,63.0104348 Z" id="Shape" fill="#FC3E53"></path>
                </g>
            </g>
        </g>
    </g>
</svg>