<?xml version="1.0" encoding="UTF-8"?>
<svg width="50px" height="50px" viewBox="0 0 50 50" version="1.1" xmlns="http://www.w3.org/2000/svg" xmlns:xlink="http://www.w3.org/1999/xlink">
    <!-- Generator: sketchtool 59.1 (101010) - https://sketch.com -->
    <title>73497215-9D65-46C6-89FC-EE2891246248</title>
    <desc>Created with sketchtool.</desc>
    <g id="Web-Design" stroke="none" stroke-width="1" fill="none" fill-rule="evenodd">
        <g id="Style-Guide-(Incomplete)" transform="translate(-288.000000, -327.000000)">
            <g id="Group-17-Copy" transform="translate(288.000000, 327.000000)">
                <rect id="icon-bd" fill="#2E4DA6" x="0" y="0" width="50" height="50" rx="19"></rect>
                <g id="Credit-card.4-Copy" transform="translate(10.000000, 10.000000)">
                    <g id="Group" stroke-linecap="round" stroke-linejoin="round" transform="translate(4.000000, 7.000000)" stroke="#FFFFFF" stroke-width="1.5">
                        <path d="M16.5868259,7.90509259 L16.5868259,2.63503086 C16.5868259,1.17917631 15.4448867,0 14.0350065,0 L2.55181936,0 C1.14193917,0 0,1.17917631 0,2.63503086 L0,9.22260802 C0,10.6784626 1.14193917,11.8576389 2.55181936,11.8576389 L22.9663743,11.8576389" id="Path"></path>
                        <path d="M20.4145549,19.7627315 L8.93136777,19.7627315 C7.52148757,19.7627315 6.37954841,18.5835552 6.37954841,17.1277006 L6.37954841,10.5401235 C6.37954841,9.0842689 7.52148757,7.90509259 8.93136777,7.90509259 L20.4145549,7.90509259 C21.8244351,7.90509259 22.9663743,9.0842689 22.9663743,10.5401235 L22.9663743,17.1277006 C22.9663743,18.5835552 21.8244351,19.7627315 20.4145549,19.7627315 Z" id="Path"></path>
                        <line x1="16.5868259" y1="3.9525463" x2="0" y2="3.9525463" id="Path"></line>
                    </g>
                    <polygon id="Path" points="0 0 31 0 31 31 0 31"></polygon>
                </g>
            </g>
        </g>
    </g>
</svg>